<svg width="237" height="185" viewBox="0 0 237 185" fill="none" xmlns="http://www.w3.org/2000/svg">
<path fill-rule="evenodd" clip-rule="evenodd" d="M188.569 49.4695C188.506 49.4327 187 48.562 185.182 48.7134C183.165 48.8796 180.155 50.2632 177.754 53.6437C176.868 54.8863 176.268 55.9417 175.861 56.7914C175.802 55.7089 175.573 54.6072 174.991 53.7233C174.391 52.8027 174.715 52.1053 174.728 52.0808C174.804 51.932 174.771 51.7509 174.648 51.6371C174.525 51.5242 174.342 51.5076 174.2 51.5951C172.308 52.773 170.938 54.1381 170.024 55.7396C165.046 30.0518 152.027 0 118.361 0C84.3997 0 71.4999 30.0317 66.6754 55.6914C65.8257 54.216 64.5244 52.8281 62.5485 51.596C62.4067 51.5093 62.2273 51.5268 62.1048 51.6371C61.9814 51.7474 61.9473 51.9285 62.0182 52.0773C62.0322 52.1061 62.3542 52.8018 61.7521 53.719C61.1711 54.6046 60.9418 55.7046 60.8832 56.7844C60.4771 55.9365 59.8777 54.882 58.9947 53.6419C56.5838 50.2553 53.5743 48.8753 51.5616 48.7125C49.751 48.569 48.2423 49.4327 48.1784 49.4695C48.0209 49.5605 47.9535 49.753 48.0183 49.9236C48.083 50.0934 48.2616 50.1923 48.4401 50.1555C51.6797 49.4957 55.629 57.4259 56.6555 60.6926C57.2982 62.7392 57.8464 64.6508 58.3763 66.4987L58.3764 66.499L58.4057 66.6013C59.7271 71.2113 60.8709 75.1948 62.7226 78.5412C62.622 78.8028 62.5598 79.0811 62.5467 79.369C62.5432 79.4986 62.5467 79.6272 62.5607 79.7523C60.4532 79.8695 59.7718 80.56 58.9238 81.4194L58.922 81.4212C58.6254 81.7222 58.3174 82.0346 57.9542 82.333C57.6838 82.4625 55.1862 83.0733 53.4991 83.4654C53.3424 83.5021 53.226 83.6352 53.2129 83.7953C53.2041 83.8977 53.016 86.3077 54.6358 87.0787C55.548 87.5134 56.358 87.4507 58.3115 87.2995L58.3147 87.2992L59.3482 87.2257C59.7009 87.2257 59.9888 87.5031 60.0028 87.8531C60.0124 88.2119 59.7368 88.5112 59.3894 88.5349L55.6107 88.6469C55.454 88.6512 55.3166 88.7545 55.2676 88.9033C55.2195 89.052 55.2694 89.2157 55.3936 89.3128C55.4601 89.3644 57.0292 90.5747 58.3856 90.9466C59.4926 91.2555 61.0372 91.2503 62.4513 91.0551C60.2277 92.0414 57.4738 93.2744 56.3886 96.1859C55.2536 99.2365 56.2136 103.939 57.0432 105.066C56.7921 105.563 56.582 105.871 56.4446 106.036C56.2679 106.246 56.141 106.327 56.0386 106.365C55.9301 106.418 55.8539 106.519 55.8347 106.638C55.8146 106.756 55.8531 106.877 55.9388 106.963C56.0333 107.057 56.5768 107.512 58.0776 107.222C58.768 107.092 59.3631 106.862 59.8059 106.65C59.6755 107.385 59.5556 108.59 59.6536 110.343C59.8322 113.573 62.8784 115.893 63.0079 115.99C63.1374 116.087 63.3151 116.09 63.4463 115.996C63.5785 115.902 63.6345 115.733 63.5846 115.579C62.2177 111.325 69.7777 102.175 81.9451 96.2672H107.374C107.941 97.8354 109.44 98.9144 111.132 98.9144C112.723 98.9144 114.154 97.9676 114.79 96.5543C115.428 97.9684 116.858 98.9144 118.447 98.9144C120.036 98.9144 121.455 97.9798 122.098 96.5823C122.742 97.9807 124.163 98.9127 125.742 98.9127C127.435 98.9127 128.935 97.8337 129.501 96.2672H154.796C166.965 102.174 174.526 111.327 173.161 115.581C173.111 115.735 173.167 115.904 173.3 115.997C173.364 116.044 173.44 116.066 173.516 116.066C173.594 116.066 173.672 116.042 173.739 115.993C173.868 115.896 176.92 113.574 177.092 110.342C177.188 108.587 177.067 107.383 176.936 106.652C177.373 106.861 177.968 107.093 178.666 107.225C180.01 107.481 180.597 107.146 180.784 106.991C180.9 106.899 180.964 106.749 180.925 106.607C180.887 106.465 180.782 106.361 180.635 106.339C180.631 106.337 180.193 106.168 179.551 104.757C179.406 104.442 179.258 104.073 179.102 103.634C179.013 103.384 178.906 103.143 178.798 102.903L178.793 102.89C180.374 102.231 181.335 101.204 181.563 99.8919C181.796 98.5749 181.733 97.6963 181.563 97.1135C182.045 97.3419 182.369 97.5571 182.373 97.5598C182.567 97.6972 183.028 97.8039 183.921 96.9665C184.694 96.2305 184.566 95.0395 184.486 94.5958C185.344 94.2536 185.652 93.3864 185.699 92.808C185.911 92.5201 186.462 91.7027 186.462 90.9843C186.462 89.9735 184.387 88.1104 183.555 87.4042V86.7409C183.555 86.1861 182.884 85.3469 182.507 84.9189C182.744 84.3527 183.235 82.8843 182.661 81.5778C182.261 80.6659 181.435 80.0297 180.208 79.6858C180.158 79.6718 180.109 79.6692 180.061 79.6745C179.088 78.4817 177.491 78.3075 176.547 78.4266C175.86 77.9628 175.172 77.709 174.509 77.5865C176.082 74.4405 177.14 70.7834 178.349 66.5724C178.886 64.7006 179.442 62.7657 180.094 60.6926C181.114 57.4233 185.057 49.4773 188.308 50.1538C188.49 50.1897 188.665 50.0917 188.729 49.9219C188.794 49.7521 188.727 49.5596 188.569 49.4677V49.4695ZM118.362 0.743836C151.941 0.743836 164.697 31.2297 169.483 56.8466C168.142 60.0862 168.704 63.6409 169.257 67.0817L169.279 67.2213C169.336 67.5804 169.393 67.9381 169.448 68.2938V68.3034C169.508 69.1724 169.705 75.32 164.64 80.5697C164.479 70.4833 163.248 52.1123 157.11 36.1566C149.357 16.0003 136.326 5.78004 118.379 5.78004C100.229 5.78004 87.1414 16.045 79.4799 36.2896C73.426 52.2864 72.3461 70.6574 72.2735 80.7368C67.0342 75.4398 67.253 69.0437 67.3003 68.306V68.2658C67.3587 67.8823 67.4204 67.4955 67.483 67.1031L67.4832 67.1014L67.4893 67.0634C68.0257 63.71 68.5998 60.0739 67.2259 56.7888C71.8569 31.2035 84.489 0.743836 118.362 0.743836ZM126.132 88.5699C126.132 88.0046 126.004 87.4455 125.773 86.931C125.791 86.9197 125.809 86.9081 125.827 86.8965C125.912 86.8414 125.997 86.7861 126.103 86.7523L126.181 86.7164L126.185 86.7146C127.236 86.0627 128.248 85.5105 129.228 85.0397C133.469 83.0016 137.068 82.4984 140.314 82.0451L140.349 82.0402C141.587 81.867 142.757 81.7033 143.869 81.4614L144.523 81.3188L144.511 81.3065C146.301 80.8515 147.679 80.2118 148.907 79.2675C154.529 74.9515 154.143 70.254 153.641 68.2649C155.382 69.3579 156.407 70.5349 156.766 71.8458C157.175 73.3405 156.741 75.1292 155.439 77.3117C155.355 77.4526 155.373 77.632 155.484 77.7527C155.595 77.8744 155.773 77.9085 155.92 77.8376L155.921 77.8371C155.956 77.8208 156.759 77.4495 157.965 77.3248C158.427 77.2758 158.798 77.2863 159.097 77.3213C158.949 77.4193 158.802 77.5392 158.673 77.6862C158.524 77.8567 158.412 78.1557 158.225 78.6512L158.224 78.6523C157.653 80.1706 156.463 83.3315 153.029 84.4254C151.915 84.7789 149.786 84.7395 146.875 84.3134C145.193 84.0609 143.744 83.7573 143.178 83.6386L143.158 83.6343L143.068 83.6159L143.065 83.6255H143.062L143.049 83.6177L143.052 83.6107L143.043 83.6082C143.031 83.6047 143.02 83.6012 143.008 83.5984C142.84 83.5328 142.646 83.5984 142.553 83.7577C142.45 83.9353 142.509 84.1628 142.687 84.267C142.74 84.2983 142.792 84.3116 142.848 84.326L142.853 84.3274L142.868 84.3317C143.605 84.5855 146.107 85.4904 147.735 86.6079C148.252 86.9597 148.626 87.3001 148.89 87.686L148.894 87.6912C149.046 87.9389 149.165 88.2828 149.237 88.6906C149.27 88.8665 149.293 89.0389 149.31 89.2017C149.302 89.2384 149.303 89.2778 149.319 89.3277C149.321 89.3593 149.323 89.3905 149.325 89.4213C149.328 89.4671 149.33 89.5118 149.332 89.5552C148.497 89.0284 147.437 88.5944 146.17 88.2609C142.983 87.4191 138.582 87.2047 133.091 87.6239C131.798 87.7193 130.539 87.9275 129.244 88.2601C128.192 88.5305 127.146 88.8788 126.062 89.3172C126.105 89.0879 126.129 88.8551 126.132 88.6197V88.5699ZM111.818 89.9009C111.631 89.4966 111.533 89.0643 111.528 88.5707C111.528 88.0439 111.65 87.5451 111.907 87.0533C111.918 87.0244 111.933 86.999 111.973 86.9378C112.547 85.927 113.632 85.2987 114.805 85.2987C115.707 85.2987 116.525 85.6654 117.118 86.2578C117.71 86.8503 118.077 87.6685 118.077 88.5707V88.6189C118.062 89.5631 117.644 90.4522 116.925 91.063C116.516 91.4227 116.012 91.6712 115.472 91.7823C115.241 91.8252 115.017 91.848 114.805 91.848C113.555 91.848 112.399 91.1208 111.86 89.9954C111.857 89.9905 111.854 89.9823 111.85 89.9726C111.84 89.9474 111.825 89.9125 111.818 89.9018V89.9009ZM118.449 85.5219C117.281 85.5219 116.225 84.9093 115.639 83.9239C115.556 83.7831 115.482 83.6352 115.419 83.4794C115.271 83.1241 115.198 82.7408 115.187 82.3444C115.186 82.3295 115.184 82.3149 115.182 82.3002L115.181 82.2874L115.18 82.2806L115.179 82.2715C115.178 82.2646 115.178 82.2577 115.178 82.2507C115.178 81.8193 115.259 81.4036 115.419 81.0134C115.482 80.8585 115.556 80.7106 115.64 80.5697C116.099 79.797 116.853 79.2614 117.72 79.0636C117.956 79.0094 118.199 78.9726 118.45 78.9726C119.387 78.9726 120.247 79.3752 120.853 80.0359C121.157 80.3675 121.402 80.7587 121.551 81.2068C121.669 81.5332 121.728 81.885 121.728 82.2507C121.728 82.2768 121.725 82.302 121.722 82.3272L121.722 82.3273C121.721 82.334 121.721 82.3406 121.72 82.3473C121.72 82.3503 121.719 82.3534 121.719 82.3565L121.718 82.3684C121.717 82.3752 121.717 82.3821 121.717 82.389C121.704 82.704 121.654 83.0103 121.55 83.3009C121.438 83.6325 121.277 83.9379 121.076 84.2084C120.472 85.0196 119.507 85.5219 118.451 85.5219H118.449ZM118.759 86.2486C118.787 86.2496 118.815 86.2505 118.843 86.2483C118.697 86.4552 118.569 86.6768 118.462 86.9107C118.356 86.677 118.228 86.4565 118.081 86.2491C118.096 86.2506 118.111 86.2507 118.127 86.2504C118.136 86.2503 118.146 86.2499 118.155 86.2495H118.155H118.155H118.155H118.155H118.156H118.156C118.177 86.2487 118.198 86.2479 118.22 86.2491C118.251 86.2508 118.281 86.254 118.311 86.2571L118.311 86.2571C118.357 86.2619 118.402 86.2666 118.449 86.2666C118.497 86.2666 118.543 86.2617 118.59 86.2568L118.59 86.2568C118.622 86.2534 118.654 86.25 118.686 86.2482C118.71 86.247 118.735 86.2478 118.759 86.2486ZM118.459 90.2387C118.565 90.4723 118.694 90.6946 118.843 90.9029C118.712 90.8897 118.58 90.8836 118.447 90.8836C118.322 90.8836 118.199 90.8889 118.076 90.9002C118.224 90.692 118.352 90.4706 118.458 90.2387H118.459ZM118.838 88.5699C118.838 86.7658 120.308 85.2987 122.116 85.2987C122.561 85.2987 122.994 85.3889 123.391 85.5569C123.96 85.7975 124.45 86.201 124.806 86.7199L124.823 86.7447L124.823 86.7448C124.875 86.8204 124.927 86.896 124.972 86.9772L124.976 86.9842V86.9868C124.981 86.9956 124.986 87.0041 124.991 87.0126C124.994 87.0192 124.998 87.0257 125.002 87.0323C125.254 87.504 125.387 88.0352 125.387 88.5699V88.6162C125.382 89.0267 125.299 89.4327 125.141 89.8213V89.8239C125.095 89.9315 125.046 90.0339 124.983 90.1433L124.968 90.1695C124.731 90.6071 124.379 90.9913 123.892 91.3308L123.848 91.3544L123.836 91.3613L123.826 91.3673L123.814 91.3746L123.799 91.385C123.777 91.3999 123.752 91.4148 123.724 91.4306L123.686 91.4519C123.669 91.4613 123.651 91.4714 123.631 91.4822C122.914 91.8489 122.056 91.9407 121.35 91.7535C120.814 91.6275 120.317 91.3641 119.911 90.9878C119.244 90.3866 118.852 89.5211 118.838 88.5699ZM125.253 86.0792L125.253 86.0785L125.236 86.0579L125.218 86.0364C125.134 85.934 125.046 85.8352 124.954 85.7424L124.933 85.722L124.909 85.6996C124.886 85.6777 124.862 85.6561 124.839 85.6348C124.738 85.5429 124.634 85.4562 124.526 85.3749C124.483 85.3425 124.439 85.311 124.394 85.2812C124.287 85.2077 124.176 85.1395 124.062 85.0764L124.057 85.0736C124.005 85.0449 123.955 85.017 123.903 84.9907C123.794 84.9364 123.683 84.8901 123.57 84.8454L123.535 84.8313L123.534 84.8311C123.483 84.8104 123.431 84.7897 123.378 84.7719C123.271 84.736 123.161 84.708 123.052 84.6818L123.016 84.6728L122.979 84.6631C122.931 84.6508 122.884 84.6385 122.835 84.6293C122.739 84.6114 122.643 84.6011 122.546 84.5908L122.496 84.5855C122.47 84.5829 122.443 84.5795 122.417 84.5761C122.373 84.5705 122.329 84.5649 122.285 84.5628C122.101 84.554 121.916 84.5566 121.732 84.5733C121.785 84.4993 121.83 84.4201 121.874 84.341C121.887 84.318 121.9 84.2951 121.914 84.2722C121.923 84.2558 121.933 84.2398 121.943 84.2239L121.955 84.2055C121.975 84.1733 121.996 84.1412 122.013 84.1068C122.023 84.0874 122.032 84.0676 122.041 84.048C122.047 84.034 122.053 84.02 122.06 84.0062C122.131 83.8574 122.199 83.7052 122.252 83.545C122.389 83.1644 122.456 82.7566 122.465 82.3339C122.465 82.3199 122.467 82.3063 122.468 82.2928C122.47 82.2792 122.472 82.2656 122.472 82.2516C122.472 81.7983 122.398 81.3634 122.255 80.9643C122.118 80.5557 121.92 80.1803 121.672 79.8468C121.607 79.7595 121.534 79.6801 121.461 79.6009L121.436 79.5741C121.427 79.5638 121.417 79.5535 121.408 79.5432C121.389 79.5221 121.371 79.5001 121.352 79.4781C121.338 79.4605 121.323 79.4429 121.308 79.4258C121.295 79.4101 121.281 79.3949 121.266 79.3804C120.533 78.6593 119.531 78.2305 118.451 78.2305C118.355 78.2305 118.261 78.2402 118.167 78.2498C118.138 78.2528 118.108 78.2558 118.079 78.2585C117.61 78.3014 117.158 78.4169 116.744 78.6112C116.74 78.6135 116.735 78.615 116.73 78.6166L116.73 78.6166L116.73 78.6166L116.73 78.6167L116.73 78.6167L116.721 78.6197L116.716 78.6217C115.975 78.9761 115.357 79.5589 114.948 80.2984C114.87 80.4393 114.794 80.5811 114.732 80.7333C114.634 80.9731 114.559 81.2208 114.51 81.4745C114.46 81.7283 114.436 81.9882 114.436 82.2525C114.436 82.5168 114.461 82.7776 114.51 83.0305C114.559 83.2834 114.634 83.5284 114.732 83.7647C114.838 84.0246 114.975 84.2617 115.126 84.4875C115.129 84.492 115.132 84.4966 115.135 84.5013C115.137 84.5054 115.139 84.5096 115.141 84.5138L115.146 84.5231L115.148 84.5282L115.149 84.5304L115.154 84.5395C115.155 84.5423 115.157 84.5451 115.158 84.5478C115.159 84.5498 115.16 84.5518 115.161 84.5537L115.166 84.5624L115.17 84.5685L115.173 84.5724C115.052 84.5619 114.93 84.5558 114.807 84.5558V84.5663C113.456 84.5759 112.129 85.2751 111.422 86.4145C111.398 86.3795 111.369 86.3488 111.333 86.3226L111.328 86.32L111.081 86.1353H111.038C111.027 86.128 111.014 86.1198 111 86.1112C110.99 86.1054 110.98 86.0993 110.97 86.0933L110.942 86.0749C108.441 84.5225 106.115 83.5205 103.965 82.8388C103.8 82.7863 103.637 82.7385 103.474 82.6905L103.368 82.6594C103.345 82.6524 103.321 82.6452 103.296 82.6379C103.273 82.6307 103.249 82.6235 103.226 82.6163L103.165 82.5976C103.128 82.5864 103.091 82.5754 103.055 82.5649C100.657 81.885 98.4924 81.5804 96.5637 81.3091C96.071 81.24 95.5958 81.1717 95.1267 81.1C95.0544 81.0888 94.9831 81.0771 94.912 81.0655L94.9111 81.0653L94.9103 81.0652L94.9094 81.065C94.848 81.055 94.7867 81.0449 94.7251 81.0352C94.5664 81.0096 94.4114 80.9817 94.2568 80.9538L94.2563 80.9537L94.0862 80.9232C98.7409 76.2826 104.572 73.0841 111.07 71.6402C111.286 71.592 111.503 71.5448 111.714 71.5028C111.766 71.4958 111.818 71.487 111.839 71.4791C112.826 71.2866 113.744 71.1483 114.642 71.0556L115.116 71.0066C116.207 70.8919 117.313 70.8333 118.468 70.8272H118.595C119.675 70.8272 120.777 70.8806 121.876 70.9856C122.002 70.9952 122.128 71.0057 122.263 71.0223C123.204 71.1168 124.174 71.2577 125.144 71.4406L125.266 71.4695C125.486 71.5071 125.705 71.55 125.912 71.5946L126.056 71.6314C132.498 73.0316 138.352 76.2152 143.033 80.8567L142.919 80.8783L142.833 80.8947C142.648 80.9299 142.463 80.9652 142.274 80.9967C142.21 81.007 142.147 81.0178 142.084 81.0285L142.083 81.0288L142.082 81.029L142.081 81.0291C141.996 81.0437 141.91 81.0584 141.822 81.072C141.299 81.1525 140.767 81.2286 140.216 81.3056C137.832 81.6391 135.086 82.025 131.989 83.1048C131.973 83.1106 131.957 83.1158 131.941 83.1209C131.92 83.1276 131.9 83.1342 131.879 83.1416C131.647 83.2239 131.412 83.3131 131.176 83.4033C131.153 83.4118 131.131 83.4201 131.109 83.4282C131.093 83.4342 131.076 83.4402 131.06 83.4461C131.014 83.4629 130.969 83.4797 130.922 83.4978C130.76 83.5609 130.596 83.6299 130.432 83.6989L130.296 83.7559C130.251 83.7748 130.206 83.7931 130.161 83.8114L130.159 83.8119L130.159 83.812C130.124 83.8265 130.088 83.841 130.052 83.8558C130.016 83.8706 129.98 83.8856 129.944 83.9012C129.827 83.9518 129.709 84.006 129.591 84.0603L129.501 84.1019C129.465 84.1182 129.43 84.1345 129.394 84.1506L129.327 84.1809C129.291 84.1973 129.255 84.2135 129.218 84.2297L129.218 84.2301L129.217 84.2305L129.216 84.2307C129.125 84.2714 129.034 84.3122 128.942 84.3562C128.832 84.4087 128.721 84.4648 128.61 84.521L128.608 84.5219L128.606 84.5228C128.556 84.5485 128.505 84.5742 128.454 84.5995C128.404 84.6243 128.355 84.6488 128.305 84.6732L128.304 84.6735C128.177 84.7364 128.049 84.7994 127.919 84.8673C127.827 84.9154 127.733 84.9671 127.64 85.0189L127.639 85.0194L127.638 85.0199L127.637 85.0204C127.579 85.0528 127.52 85.0852 127.462 85.1167C127.411 85.144 127.361 85.1709 127.311 85.1979L127.311 85.1982C127.167 85.2758 127.023 85.3533 126.876 85.437C126.79 85.4862 126.703 85.5386 126.615 85.5911L126.615 85.5916C126.559 85.6249 126.504 85.6582 126.448 85.6908C126.398 85.7206 126.347 85.7502 126.297 85.7798L126.291 85.7834L126.29 85.7837C126.138 85.8725 125.987 85.9611 125.833 86.0566C125.677 86.1099 125.532 86.1765 125.399 86.2561C125.395 86.2509 125.392 86.2459 125.388 86.2409C125.386 86.2383 125.383 86.2357 125.381 86.2331L125.366 86.2148C125.36 86.2083 125.355 86.2019 125.349 86.1953C125.345 86.1897 125.34 86.184 125.336 86.1782L125.333 86.1791C125.308 86.1449 125.281 86.112 125.253 86.0792ZM110.868 89.3916C109.706 88.9138 108.598 88.541 107.502 88.2609C106.214 87.9293 104.956 87.721 103.656 87.6247C98.1633 87.2056 93.7625 87.42 90.5771 88.2618C89.3099 88.5952 88.2502 89.0284 87.4162 89.5543C87.4302 89.2446 87.4617 88.9523 87.5099 88.6862C87.5816 88.2811 87.7006 87.9354 87.9001 87.6186C88.2099 87.1671 88.847 86.6604 89.7414 86.1519L89.7561 86.143C89.7641 86.138 89.7719 86.1329 89.779 86.1274C91.4854 85.1552 93.5822 84.4341 93.9882 84.2994C94.1764 84.2364 94.2823 84.0368 94.228 83.8461C94.1746 83.6544 93.9795 83.5398 93.787 83.5844C93.6259 83.6212 92.1601 83.9537 90.3601 84.2381C87.2062 84.7422 84.909 84.8069 83.7154 84.4271C80.2806 83.3333 79.0914 80.1733 78.5199 78.6541C78.3335 78.1579 78.2207 77.8586 78.071 77.688C77.9415 77.5401 77.7936 77.4193 77.6448 77.3222C77.938 77.2872 78.3108 77.2775 78.7781 77.3266C79.9853 77.4521 80.787 77.8226 80.8221 77.8388L80.8232 77.8394C80.9702 77.9111 81.1479 77.8761 81.259 77.7545C81.3693 77.6337 81.3876 77.4543 81.3045 77.3134C80.0041 75.1327 79.5701 73.3457 79.9787 71.8502C80.3375 70.5384 81.3623 69.3605 83.102 68.2675C82.6005 70.2566 82.2155 74.9542 87.8371 79.2693C89.1349 80.2678 90.6243 80.932 92.5924 81.3896L92.5828 81.3993L93.247 81.534C94.2544 81.7381 95.3045 81.8858 96.4159 82.0421L96.456 82.0477C97.6785 82.2192 98.9527 82.3995 100.292 82.6656C100.318 82.6708 100.342 82.6752 100.368 82.6796C100.401 82.6862 100.434 82.6933 100.467 82.7004L100.532 82.7146C100.569 82.7226 100.605 82.7305 100.642 82.7382C103.304 83.2939 106.228 84.2119 109.547 86.1126C109.89 86.3086 110.236 86.516 110.588 86.7339L110.612 86.7488L110.734 86.8275L110.751 86.8363L110.859 86.9045L110.886 86.8748C110.89 86.8752 110.894 86.8764 110.898 86.8777L110.898 86.8777L110.901 86.8787L110.905 86.8797C110.908 86.8804 110.911 86.8809 110.914 86.8809L110.893 86.9247C110.959 86.9728 111.035 86.9964 111.111 86.9964C110.894 87.4917 110.785 88.0282 110.785 88.6267C110.788 88.8884 110.816 89.1465 110.869 89.3933L110.868 89.3916ZM110.928 86.8485L110.929 86.8267L110.949 86.8056L110.928 86.8485H110.928ZM121.48 32.419C122.296 31.7215 123.253 31.1842 124.305 30.8639C125.47 33.1138 126.132 35.6639 126.132 38.3671V70.8867L126.079 70.8736C125.849 70.8228 125.619 70.7782 125.427 70.7475C125.372 70.7318 125.318 70.7178 125.278 70.7125C124.481 70.562 123.69 70.4483 122.913 70.3564V38.3671C122.913 36.2257 122.389 34.2086 121.48 32.419ZM116.233 32.1932C116.776 31.2997 117.424 30.4806 118.173 29.7587C118.913 30.485 119.553 31.3102 120.087 32.2063C119.243 33.0902 118.58 34.1438 118.148 35.3112C117.724 34.1403 117.069 33.0832 116.232 32.1932H116.233ZM117.577 38.3671V70.1122C116.729 70.1341 115.879 70.1787 115.035 70.268L114.564 70.317C114.56 70.3174 114.555 70.3179 114.55 70.3185C114.545 70.3191 114.539 70.3198 114.534 70.3205L114.51 70.3238C114.499 70.3254 114.487 70.327 114.476 70.3284V38.4318C114.476 36.5678 114.914 34.808 115.671 33.2302C116.855 34.6137 117.576 36.406 117.576 38.3662L117.577 38.3671ZM118.697 38.4327C118.697 36.4506 119.434 34.6409 120.643 33.2512C121.375 34.8071 121.796 36.5372 121.796 38.3671V70.2365C120.762 70.1411 119.721 70.0912 118.696 70.0877V38.4318L118.697 38.4327ZM119.013 29.0175C119.741 29.7411 120.376 30.5547 120.92 31.4305C121.755 30.7517 122.713 30.2224 123.754 29.8742C123.198 28.9606 122.554 28.1056 121.836 27.3207C120.814 27.7556 119.868 28.3323 119.013 29.0175ZM118.174 28.2544C117.322 27.5412 116.372 26.9435 115.357 26.4613C116.221 25.6545 117.171 24.9404 118.194 24.3339C119.21 24.9474 120.152 25.6702 121.009 26.4823C119.989 26.9566 119.033 27.5464 118.174 28.2535V28.2544ZM117.34 29.0114C116.605 29.7298 115.961 30.5358 115.409 31.4074C114.581 30.723 113.625 30.191 112.589 29.8348C113.151 28.9256 113.801 28.0767 114.524 27.297C115.543 27.7407 116.49 28.3183 117.34 29.0114ZM114.839 32.3945C113.901 34.206 113.362 36.2563 113.362 38.4327V70.4238H113.731C113.074 70.5104 112.406 70.6128 111.697 70.751L111.58 70.7729C111.354 70.8176 111.131 70.8657 110.825 70.9339C110.699 70.9623 110.575 70.9964 110.451 71.0305C110.348 71.0586 110.246 71.0867 110.143 71.1116V38.4318C110.143 35.6831 110.826 33.0919 112.028 30.8149C113.076 31.144 114.027 31.69 114.839 32.3936V32.3945ZM148.156 85.9936C147.633 85.6348 147.027 85.2987 146.416 84.9959C146.494 85.0082 146.571 85.0205 146.65 85.0325C146.689 85.0385 146.728 85.0444 146.767 85.0502C149.833 85.5 152.016 85.528 153.255 85.1351C157.033 83.9318 158.309 80.5434 158.922 78.9157L158.935 78.8814L158.935 78.8813L158.935 78.8807L158.935 78.8804L158.935 78.8799L158.935 78.8796L158.935 78.8791C159.049 78.5787 159.173 78.2503 159.234 78.1772C159.475 77.902 159.85 77.7568 160.076 77.6692L160.079 77.6678C160.274 77.5935 160.515 77.5007 160.512 77.2172C160.511 77.0859 160.436 76.9188 160.168 76.8225L160.167 76.8221C159.871 76.7107 159.179 76.4499 157.889 76.5853C157.371 76.6396 156.921 76.7332 156.561 76.8312C157.59 74.8421 157.892 73.1409 157.485 71.6515C157.016 69.9363 155.601 68.4557 153.162 67.1246C153.019 67.0476 152.844 67.0704 152.729 67.1806C152.611 67.2909 152.579 67.465 152.648 67.6112C152.759 67.8466 155.3 73.4254 148.455 78.6795C147.216 79.6316 145.802 80.2538 143.902 80.6896C139.312 76.0113 133.572 72.7463 127.25 71.1728V38.3671C127.25 35.5851 126.594 32.9546 125.434 30.6172C125.819 30.5594 126.21 30.52 126.611 30.52C130.972 30.52 134.519 34.0659 134.524 38.4257H135.64C135.636 33.4507 131.587 29.4043 126.611 29.4043C126.016 29.4043 125.435 29.4655 124.871 29.5758C124.317 28.6254 123.676 27.7328 122.958 26.9076C124.093 26.5532 125.299 26.3624 126.549 26.3624C133.202 26.3624 138.616 31.7732 138.619 38.4257H139.735C139.732 31.158 133.818 25.2467 126.549 25.2467C125.001 25.2467 123.52 25.5285 122.139 26.0211C121.283 25.1618 120.336 24.3934 119.317 23.7257C121.494 22.6537 123.941 22.0499 126.527 22.0499C135.558 22.0499 142.906 29.3955 142.91 38.4257H144.026C144.022 28.7803 136.173 20.9342 126.527 20.9342C123.513 20.9342 120.674 21.6999 118.196 23.0475C115.691 21.6614 112.813 20.8685 109.751 20.8685C100.103 20.8685 92.252 28.7182 92.252 38.3671V38.4248H93.3678V38.3671C93.3678 29.3334 100.718 21.9843 109.751 21.9843C112.383 21.9843 114.869 22.6117 117.074 23.7187C116.051 24.3786 115.099 25.139 114.236 25.9914C112.827 25.4768 111.313 25.181 109.729 25.181C102.457 25.181 96.5426 31.0967 96.5426 38.3671V38.4248H97.6584V38.3671C97.6584 31.711 103.073 26.2968 109.729 26.2968C111.011 26.2968 112.245 26.5016 113.405 26.8735C112.683 27.6926 112.035 28.5782 111.475 29.5215C110.89 29.4025 110.285 29.3395 109.666 29.3395C104.688 29.3395 100.637 33.3895 100.637 38.3679V38.4257H101.753V38.3679C101.753 34.0047 105.303 30.4553 109.666 30.4553C110.088 30.4553 110.5 30.4981 110.905 30.562C109.707 32.9301 109.027 35.6026 109.027 38.4327V71.403C103.024 73.0727 97.5875 76.2747 93.2094 80.7631C91.0978 80.3238 89.6153 79.6972 88.2931 78.6795C81.4498 73.4254 83.9884 67.8457 84.0996 67.6112C84.1687 67.465 84.1363 67.2918 84.0191 67.1806C83.9009 67.0695 83.7268 67.0476 83.5859 67.1246C81.1461 68.4565 79.7328 69.9381 79.2646 71.6542C78.8577 73.1436 79.1596 74.8448 80.1879 76.8312C79.8273 76.7341 79.3775 76.6396 78.8586 76.5853C77.559 76.4499 76.8721 76.7124 76.526 76.8447L76.5247 76.8452C76.3777 76.8969 76.2429 77.0605 76.2403 77.2163C76.2359 77.4998 76.4775 77.5935 76.6726 77.6687L76.6735 77.6691C76.8977 77.7558 77.2733 77.901 77.5136 78.1763C77.5774 78.2532 77.7094 78.6046 77.8258 78.9143L77.826 78.9149C78.4386 80.5434 79.7136 83.9309 83.4914 85.1342C85.1024 85.6479 88.0699 85.3486 90.3321 84.9942C90.0091 85.1535 89.688 85.3223 89.3791 85.5C89.3677 85.507 89.3572 85.514 89.3467 85.521C88.4173 86.0513 87.7505 86.5799 87.3506 87.1111C85.358 87.0489 83.7548 86.8485 82.5848 86.5134C78.6941 85.3827 75.4763 83.6798 73.0121 81.4562C73.0392 71.6016 74.014 52.8281 80.1739 36.553C87.7146 16.6269 100.568 6.52388 118.377 6.52388C135.985 6.52388 148.783 16.584 156.414 36.4235C162.661 52.661 163.792 71.4389 163.905 81.2995C161.41 83.6045 158.133 85.36 154.157 86.5125C152.995 86.8459 151.394 87.048 149.397 87.1128C149.123 86.7444 148.705 86.3672 148.154 85.9927L148.156 85.9936ZM59.1224 66.3974C58.5825 64.5124 58.0242 62.5636 57.3661 60.4704C56.8507 58.8295 53.6076 51.0026 49.9409 49.5911C50.3994 49.4808 50.9403 49.4091 51.5029 49.4546C53.3485 49.6034 56.127 50.895 58.39 54.0742C60.7239 57.3515 60.9803 59.2627 60.9882 59.3266V59.331C61.0118 59.5349 61.1991 59.6828 61.3977 59.6591C61.6007 59.6381 61.7486 59.4561 61.7285 59.2522L61.7267 59.2373C61.557 57.7234 61.4415 55.5523 62.3761 54.1276C62.7296 53.5886 62.846 53.0915 62.86 52.6933C68.4122 56.5952 67.5708 61.8541 66.7561 66.946L66.756 66.947L66.754 66.9595L66.7539 66.9597C66.4589 68.8041 66.1801 70.5466 66.1836 72.2405C66.1836 72.6316 66.2003 73.0202 66.2309 73.4035L66.2606 73.7325L66.2607 73.7327C66.2685 73.8079 66.2764 73.8831 66.2851 73.9574C66.2983 74.0808 66.314 74.2033 66.3315 74.318C66.4829 75.3935 66.7481 76.4331 67.1095 77.4333C67.1347 77.5062 67.1631 77.5774 67.1916 77.6487L67.1917 77.6488C67.2097 77.694 67.2278 77.7393 67.2451 77.7851C67.1296 77.6468 67.0036 77.5164 66.8592 77.4018C66.2195 76.8943 65.3882 76.7105 64.5787 76.9004C64.0204 77.0281 63.5286 77.3502 63.1689 77.7851C61.4808 74.591 60.3808 70.7843 59.1242 66.3992L59.1224 66.3974ZM57.0878 96.4484C58.0688 93.817 60.6836 92.6566 62.7856 91.7246C63.512 91.4026 64.1972 91.098 64.7003 90.7865C64.7143 90.7795 64.7774 90.7454 64.8587 90.6972C64.8867 90.6806 64.9165 90.6622 64.9506 90.6395C64.9641 90.6309 64.9768 90.6219 64.9904 90.6125L64.9905 90.6124L64.9912 90.6119C64.9995 90.6061 65.008 90.6002 65.0171 90.594C65.1668 90.4907 65.354 90.3393 65.5553 90.1337L65.5693 90.1205V90.1188C66.1836 89.4817 66.8916 88.324 66.8662 86.3716C66.8601 85.9192 66.7787 85.4816 66.6247 85.0703C66.4619 84.6345 66.2379 84.2521 65.9579 83.9344C65.8222 83.7804 65.5868 83.7664 65.4328 83.9012C65.2788 84.0368 65.2639 84.2722 65.3995 84.4263C65.6192 84.6757 65.7968 84.9802 65.9281 85.3311C66.0506 85.6584 66.118 86.0216 66.1233 86.3821C66.1451 88.0658 65.5606 89.038 65.0626 89.5683C63.7859 90.2807 60.3983 90.7366 58.5869 90.2334C57.9804 90.0672 57.3005 89.6935 56.7702 89.3601L59.4279 89.2813C60.1892 89.2306 60.7694 88.5961 60.7493 87.8321C60.7186 87.0778 60.1052 86.4862 59.3509 86.4862H59.2423L58.2596 86.5606C56.3921 86.7068 55.6929 86.761 54.9587 86.4101C54.0609 85.9822 53.9532 84.6897 53.9497 84.1278C58.1108 83.1556 58.3025 83.0051 58.3795 82.9447C58.8205 82.5894 59.1575 82.2481 59.455 81.9462L59.4565 81.9447C60.3027 81.0871 60.8625 80.5198 63.0175 80.483C63.133 80.4813 63.2416 80.4253 63.3098 80.3325C63.3789 80.2389 63.4008 80.119 63.3676 80.0079C63.3116 79.8153 63.2862 79.6079 63.2932 79.3997C63.3308 78.5561 63.9416 77.8096 64.7467 77.625C65.3339 77.4876 65.9351 77.6188 66.3972 77.9846C66.8592 78.3513 67.1252 78.8991 67.1252 79.4872C67.1252 79.79 67.0535 80.0927 66.9187 80.3623C66.8286 80.5425 66.8995 80.7622 67.0771 80.8567C68.6042 81.6671 69.8862 83.4374 70.8908 86.1196C71.1875 86.9028 71.3774 87.847 71.4684 88.9986C71.4615 89.0002 71.4553 89.0017 71.4493 89.0032C71.446 89.004 71.4427 89.0049 71.4394 89.0057C71.4316 89.0077 71.4239 89.0098 71.415 89.0118C71.2583 89.0442 71.114 89.0774 70.9871 89.1159L70.9809 89.1177L70.9748 89.1194C70.9617 89.1194 70.9529 89.1203 70.9241 89.1343C70.9191 89.1354 70.9124 89.1379 70.9055 89.1405L70.8934 89.1448C70.8637 89.1527 70.8287 89.1623 70.8077 89.1728L70.8007 89.1763L70.791 89.1815C70.448 89.2944 70.1365 89.4397 69.8284 89.5946C69.6315 89.6935 69.4373 89.7941 69.2386 89.9009C68.4904 90.3052 67.6416 90.7629 66.2782 91.126C66.1163 91.1689 65.9885 91.3098 65.9876 91.4778C65.9876 91.5162 66.0016 91.5485 66.0156 91.5809C66.0175 91.5853 66.0194 91.5897 66.0213 91.5941C66.0239 91.6002 66.0264 91.6064 66.0287 91.6126C66.0327 91.6236 66.0351 91.6355 66.0374 91.6473C66.0412 91.6666 66.045 91.6858 66.0559 91.701C66.1005 91.7631 66.1644 91.8103 66.2458 91.8331C66.2493 91.8349 66.5363 91.9775 66.9564 92.745C67.0946 92.9987 67.2478 93.319 67.4105 93.7268C67.4604 93.859 67.5173 93.9824 67.5751 94.0979C67.7501 94.4488 67.9793 94.7419 68.234 95.0071C68.4038 95.183 68.5779 95.3554 68.7801 95.491C68.7557 95.4971 68.731 95.5032 68.706 95.5095C68.688 95.514 68.6698 95.5186 68.6514 95.5234C68.6199 95.5234 68.5893 95.5269 68.5587 95.5348C67.1506 95.8979 65.9517 96.2847 64.8929 96.7197C63.7097 97.2132 62.6981 97.7637 61.8029 98.3832C61.7609 98.4123 61.7186 98.4411 61.6763 98.47C61.5694 98.5428 61.4625 98.6157 61.361 98.6922C61.2396 98.783 61.1227 98.8819 61.0059 98.9809L61.0057 98.981L61.0047 98.9819C60.9677 99.0131 60.9308 99.0444 60.8937 99.0754C60.5445 99.3669 60.2041 99.6723 59.8864 100.007C58.88 101.071 58.1266 102.293 57.6479 103.643C57.5735 103.856 57.4983 104.054 57.4248 104.238C56.9049 102.939 56.0823 99.1586 57.0913 96.4493L57.0878 96.4484ZM67.8315 79.1721C68.3254 80.2085 68.9183 81.1961 69.6132 82.1251C69.0371 81.3757 68.4087 80.787 67.7186 80.3667C67.8157 80.084 67.8665 79.7838 67.8665 79.4854C67.8665 79.4123 67.8558 79.3412 67.8451 79.2702C67.8402 79.2376 67.8353 79.2049 67.8315 79.1721ZM69.8162 82.3916C70.4926 83.2615 71.2557 84.0815 72.1028 84.8428C72.1448 84.883 72.1877 84.9233 72.2306 84.9636C72.2656 85.0056 72.3023 85.0371 72.333 85.0616C72.3662 85.0975 72.3977 85.1228 72.4161 85.136C74.4682 87.0218 76.8432 88.5453 79.2463 89.6217C79.2647 89.6655 79.2909 89.7049 79.3224 89.7372C78.0903 89.6208 76.7724 89.431 75.3967 89.1702C74.0779 88.9208 73.0479 88.8438 72.1991 88.9138C72.1011 87.7079 71.9024 86.6963 71.5848 85.857C71.0632 84.463 70.4751 83.314 69.8162 82.3925V82.3916ZM81.7036 95.5593C71.9838 100.26 62.3411 108.945 62.6745 114.697C61.8038 113.825 60.5034 112.217 60.3975 110.304C60.2513 107.675 60.6136 106.364 60.7038 106.083C60.7895 105.934 60.7851 105.731 60.6591 105.612C60.5104 105.472 60.3021 105.455 60.1621 105.605H60.1603C59.9258 105.761 59.0813 106.279 57.9402 106.493C57.5166 106.575 57.2016 106.585 56.9732 106.567C56.9881 106.551 57.003 106.533 57.0178 106.516C57.3005 106.175 57.5875 105.689 57.8728 105.072C58.0259 104.735 58.1861 104.345 58.3462 103.888C58.6158 103.129 58.9903 102.418 59.4445 101.752C59.7376 101.321 60.0562 100.904 60.4228 100.518C60.524 100.411 60.6303 100.311 60.7367 100.211L60.7371 100.211C60.7695 100.181 60.8019 100.15 60.8341 100.119C61.1457 99.8237 61.4668 99.5401 61.8046 99.2863C62.7541 98.5714 63.8567 97.9562 65.1738 97.4075C66.2011 96.9866 67.3676 96.6094 68.7407 96.2559C68.7669 96.2506 68.7914 96.2454 68.8037 96.2419C69.2089 96.143 69.502 96.0896 69.712 96.0625C69.7351 96.0596 69.7553 96.0577 69.775 96.056H69.7751C69.782 96.0553 69.7887 96.0547 69.7955 96.0541C69.8048 96.0532 69.8143 96.0522 69.8241 96.0511C69.8415 96.0495 69.8599 96.0476 69.8779 96.0457L69.8781 96.0457C69.9098 96.0423 69.9407 96.0391 69.9641 96.038C69.9964 96.0363 70.024 96.0361 70.0501 96.0363C70.0661 96.0364 70.0816 96.0367 70.0971 96.0371L70.098 96.0371H70.1137H70.1513H70.1689H70.1732C70.3745 96.0336 70.5373 95.8682 70.5381 95.6652C70.5381 95.547 70.4725 95.4569 70.3867 95.3886C70.3716 95.3747 70.3545 95.3658 70.337 95.3567C70.3334 95.3548 70.3299 95.3529 70.3263 95.351C70.3231 95.3493 70.3199 95.3476 70.3167 95.3458C70.3107 95.343 70.3052 95.3395 70.3 95.3357C70.2956 95.3326 70.2915 95.3292 70.2873 95.3259C70.2745 95.3157 70.2618 95.3056 70.245 95.302C70.2266 95.2968 70.2091 95.2924 70.1899 95.2898C70.1102 95.2784 69.6867 95.2057 69.2115 94.8863C68.8028 94.6168 68.4755 94.2396 68.2384 93.7662C68.192 93.6734 68.1447 93.5737 68.1027 93.4599C67.8288 92.7738 67.5707 92.289 67.3414 91.946C67.2661 91.834 67.1944 91.736 67.127 91.652C68.1979 91.3072 68.9294 90.9128 69.587 90.5583L69.5922 90.5555L69.5949 90.554L69.595 90.5539C70.1127 90.2745 70.5592 90.0336 71.0833 89.8685C71.0991 89.8633 71.1148 89.8571 71.1297 89.8501L71.1455 89.8449C71.3599 89.7757 71.5944 89.7285 71.7895 89.6917L71.7973 89.6915L71.8061 89.6909C71.8158 89.6903 71.8278 89.6892 71.8394 89.6882C71.862 89.6863 71.8855 89.684 71.9005 89.6825L71.9138 89.6812C72.7845 89.5631 73.8478 89.634 75.2611 89.9009C76.8546 90.2037 78.3755 90.4128 79.774 90.5231C80.3472 90.5756 80.9133 90.6141 81.469 90.629C81.6318 90.6342 81.8707 90.6473 82.128 90.6622C83.6909 90.748 83.8187 90.755 83.8747 90.3734C83.8939 90.2422 83.8686 90.0076 83.4774 89.9123C82.0974 89.5622 80.783 89.129 79.5683 88.6259C79.297 88.5165 79.0327 88.3992 78.7658 88.2793C78.2758 88.0675 77.7621 87.8164 77.195 87.5119C77.1802 87.504 77.1653 87.497 77.1495 87.4917C75.6111 86.6726 74.2127 85.7161 72.9639 84.631L72.9634 84.6305C72.9338 84.6036 72.9042 84.5766 72.8747 84.5488C72.8405 84.5138 72.774 84.4508 72.7583 84.4376L72.7288 84.4115L72.7016 84.3869L72.69 84.3764C70.5749 82.3794 68.8396 79.979 67.8446 77.2749L67.7947 77.134C67.7396 76.9835 67.6906 76.8286 67.6424 76.6737L67.5733 76.4532L67.5649 76.4238L67.5649 76.4235C67.5513 76.3755 67.5355 76.3199 67.5103 76.2406L67.4412 75.9929C67.421 75.9317 67.4062 75.8687 67.3913 75.8057L67.3913 75.8056L67.3589 75.6744C67.323 75.5352 67.2915 75.3908 67.2443 75.1694C67.1786 74.8658 67.1209 74.5612 67.0762 74.2497L67.0692 74.2051C67.0307 73.9294 66.9992 73.6511 66.9774 73.3702V73.3632C66.98 73.1821 66.9835 72.9677 66.9905 72.7253C67.6153 75.4171 69.0715 78.8571 72.3942 81.9033C74.9583 84.2574 78.3195 86.0496 82.3853 87.2309C83.5413 87.5617 85.0814 87.7674 86.969 87.8435C86.8912 88.0597 86.829 88.2986 86.7844 88.5567C86.6943 89.0494 86.6566 89.6252 86.6794 90.2746C86.6794 90.4181 86.7608 90.5476 86.8903 90.6097C87.0198 90.6719 87.1729 90.6543 87.2841 90.5651C88.104 89.9088 89.2776 89.3767 90.7731 88.9829C93.8788 88.1621 98.1966 87.9538 103.607 88.3686C104.863 88.4613 106.079 88.6626 107.323 88.9838C108.315 89.2376 109.316 89.5683 110.363 89.9893C101.967 89.3601 93.3056 90.7392 85.2416 93.9964C84.0401 94.4855 82.8526 95.0115 81.7088 95.5602L81.7036 95.5593ZM80.5974 89.8422L80.6088 89.8213L80.6849 89.8484L80.5966 89.8431L80.5974 89.8422ZM83.5526 95.526H107.172C107.14 95.3207 107.119 95.1127 107.119 94.9021C107.119 92.6881 108.92 90.8862 111.134 90.8862C111.27 90.8862 111.404 90.8924 111.537 90.9055C111.515 90.8752 111.494 90.8449 111.473 90.8146L111.473 90.8136C111.435 90.8215 111.399 90.8224 111.36 90.8197C102.748 89.9971 93.8115 91.3334 85.5155 94.6851C84.8548 94.9537 84.2002 95.2364 83.5526 95.526ZM114.278 95.7991C113.886 97.1966 112.594 98.1723 111.135 98.1723C109.676 98.1723 108.385 97.1957 107.991 95.7947C107.906 95.5059 107.863 95.2049 107.863 94.9003C107.863 93.0959 109.33 91.6283 111.134 91.6283C112.938 91.6283 114.407 93.0968 114.407 94.9003C114.407 95.2031 114.364 95.5042 114.277 95.7982L114.278 95.7991ZM114.79 93.2385C114.683 93.0031 114.554 92.7808 114.405 92.5726C114.655 92.5979 114.905 92.5997 115.171 92.5761C115.023 92.7852 114.896 93.0066 114.79 93.2385ZM121.599 95.7991C121.206 97.1966 119.912 98.1723 118.45 98.1723C116.988 98.1723 115.699 97.1957 115.306 95.7947C115.221 95.5059 115.178 95.2049 115.178 94.9003C115.178 94.0349 115.509 93.2219 116.108 92.6084C116.119 92.5997 116.128 92.5901 116.138 92.5787C116.494 92.2269 116.932 91.9583 117.409 91.7999C118.028 91.5828 118.749 91.5688 119.404 91.7727C119.897 91.9171 120.343 92.1761 120.725 92.5446C121.371 93.1685 121.726 94.0051 121.726 94.9003C121.726 95.2031 121.683 95.5042 121.598 95.7982L121.599 95.7991ZM122.461 92.5778C122.321 92.7754 122.2 92.9853 122.098 93.2048C121.995 92.9847 121.872 92.7743 121.73 92.5743C121.966 92.5971 122.218 92.5988 122.461 92.5778ZM128.887 95.7973C128.494 97.1948 127.202 98.1706 125.744 98.1706C124.286 98.1706 122.993 97.194 122.6 95.7929C122.516 95.5042 122.472 95.2031 122.472 94.8986C122.472 93.7662 123.042 92.7301 124.004 92.1271C124.076 92.0886 124.148 92.0484 124.214 92.0046L124.219 92.0011C124.682 91.7561 125.207 91.6266 125.744 91.6266C127.547 91.6266 129.015 93.0941 129.015 94.8977C129.015 95.2022 128.972 95.5033 128.887 95.7964V95.7973ZM129.705 95.5252C129.738 95.3186 129.759 95.1095 129.759 94.8986C129.759 92.6846 127.958 90.8836 125.744 90.8836C125.627 90.8836 125.509 90.8889 125.393 90.8985L125.417 90.8637L125.437 90.8343L125.452 90.8119C134.226 89.9858 143.311 91.3938 151.732 94.8907C152.226 95.0955 152.717 95.3081 153.203 95.5252H129.705ZM178.875 105.066C179.21 105.803 179.515 106.271 179.773 106.567C179.545 106.586 179.227 106.577 178.806 106.495C177.547 106.257 176.642 105.641 176.588 105.604L176.586 105.603C176.453 105.509 176.272 105.513 176.143 105.613C176.013 105.714 175.965 105.888 176.024 106.041L176.024 106.042C176.036 106.075 176.511 107.377 176.35 110.304C176.249 112.218 174.946 113.827 174.074 114.699C174.408 108.947 164.766 100.262 155.048 95.5619C154.068 95.0885 153.049 94.6317 152.017 94.2029C145.072 91.3194 137.682 89.837 130.377 89.837C129.047 89.837 127.72 89.886 126.398 89.9849C127.431 89.5692 128.43 89.2384 129.431 88.9812C130.682 88.6591 131.898 88.4587 133.147 88.366C138.557 87.952 142.874 88.1594 145.981 88.9803C147.475 89.3732 148.649 89.9053 149.47 90.5625C149.578 90.6482 149.725 90.6692 149.852 90.6123C149.979 90.5572 150.064 90.4347 150.073 90.2964L150.074 90.2774C150.079 90.1859 150.098 89.7857 150.063 89.3006V89.2927V89.2551C150.045 89.0345 150.016 88.7965 149.971 88.5567C149.926 88.2968 149.863 88.0579 149.786 87.8426C151.679 87.7639 153.218 87.5574 154.367 87.2274C158.52 86.0233 161.942 84.176 164.539 81.7362C167.735 78.7293 169.148 75.3418 169.761 72.6999C169.769 73.0036 169.772 73.2206 169.773 73.3247V73.3378V73.3632C169.759 73.554 169.745 73.7386 169.726 73.9128H169.727L169.706 74.0686H169.704C169.702 74.0778 169.698 74.1077 169.694 74.1363C169.691 74.1618 169.688 74.1863 169.688 74.1946V74.2033L169.668 74.325L169.659 74.3661C169.648 74.4475 169.635 74.5289 169.621 74.6111C169.599 74.7327 169.575 74.8553 169.548 74.9822L169.547 74.9858C169.534 75.0685 169.52 75.1469 169.497 75.2246C169.491 75.2447 169.463 75.3742 169.46 75.3961C169.459 75.4054 169.457 75.4147 169.455 75.4241C169.444 75.4806 169.433 75.5375 169.413 75.5939L169.406 75.6175C169.403 75.6291 169.4 75.6403 169.397 75.6519C169.396 75.6578 169.394 75.6638 169.393 75.67L169.391 75.6787C169.365 75.8 169.332 75.9157 169.299 76.0339L169.286 76.0787L169.26 76.1723L169.257 76.181L169.25 76.2117C169.215 76.3377 169.176 76.4637 169.134 76.5941L169.119 76.6458C169.115 76.66 169.111 76.6743 169.106 76.6885L169.099 76.7109C169.09 76.7425 169.079 76.7739 169.069 76.805L169.047 76.8671L169.033 76.9144C169.016 76.9647 168.998 77.015 168.98 77.0653C168.971 77.0903 168.962 77.1152 168.954 77.1402L168.928 77.2132L168.905 77.2805C168.884 77.339 168.863 77.3972 168.842 77.4552L168.815 77.5261L168.71 77.793C168.501 78.2927 168.274 78.7757 168.032 79.2299C167.195 80.8261 166.088 82.333 164.733 83.7174C164.658 83.7988 164.577 83.8811 164.472 83.9791C164.41 84.0465 164.341 84.1147 164.265 84.1856L164.26 84.1908L164.247 84.2031L164.213 84.2381L164.21 84.2407L164.204 84.2477L164.036 84.4009L164.018 84.4166C164.003 84.4271 163.989 84.4385 163.977 84.4508C163.956 84.4712 163.934 84.4916 163.912 84.512L163.863 84.5575L163.862 84.5584C162.6 85.6715 161.167 86.6586 159.602 87.4935C159.588 87.4987 159.574 87.5057 159.56 87.5127C159.013 87.8041 158.499 88.0553 157.984 88.2828C157.727 88.401 157.463 88.513 157.191 88.6215C155.934 89.1378 154.617 89.5692 153.273 89.9061C152.883 90.005 152.858 90.2395 152.878 90.3708C152.936 90.7514 153.063 90.7445 154.611 90.6611L154.623 90.6605C154.882 90.6456 155.123 90.6333 155.285 90.6272C155.841 90.6097 156.404 90.5773 156.976 90.5222C158.379 90.4128 159.858 90.2098 161.501 89.9026C162.955 89.6226 164.099 89.5622 164.91 89.6839C165.147 89.7224 165.363 89.7687 165.614 89.8422C165.625 89.8476 165.636 89.8526 165.647 89.8569C165.655 89.8596 165.662 89.8621 165.67 89.8641C166.196 90.0304 166.645 90.2728 167.165 90.5537L167.165 90.5539C167.823 90.9091 168.554 91.3046 169.627 91.6511C169.352 91.9932 169.014 92.5551 168.65 93.4757C168.608 93.5737 168.566 93.6708 168.518 93.7636C168.281 94.2291 167.952 94.6063 167.539 94.8846C167.12 95.1655 166.727 95.2653 166.53 95.2994C166.335 95.3335 166.201 95.5147 166.224 95.7107C166.248 95.9076 166.412 96.0598 166.62 96.0371C166.74 96.0301 167.113 96.0318 168.012 96.2576C169.376 96.6042 170.543 96.9796 171.577 97.404C172.529 97.7978 173.363 98.2292 174.113 98.7088L174.118 98.7114C174.404 98.8952 174.68 99.0842 174.942 99.2828C175.485 99.6915 175.937 100.094 176.329 100.515C177.257 101.492 177.955 102.627 178.405 103.884C178.569 104.346 178.726 104.735 178.877 105.066H178.875ZM174.747 87.2073C174.7 87.3062 174.649 87.4173 174.596 87.5381C173.552 85.5893 170.872 84.7964 168.433 85.0476C167.177 85.1771 165.916 85.6024 164.979 86.3261L164.977 86.3165C164.925 85.9874 164.836 85.388 164.872 84.631C166.438 83.1644 167.699 81.5253 168.636 79.7348C170.322 79.4522 172.097 79.8661 173.206 80.8173C173.72 81.2584 174.32 82.0118 174.324 83.1232C173.854 83.6063 173.565 84.2652 173.565 84.9898C173.565 85.8868 174.019 86.7208 174.747 87.2065V87.2073ZM170.745 91.4831C170.745 91.3159 170.631 91.1698 170.47 91.126C169.11 90.7611 168.264 90.3043 167.518 89.9009C166.989 89.6147 166.489 89.3452 165.895 89.157C165.869 89.1439 165.842 89.1343 165.815 89.1273L165.803 89.1247C165.57 89.0538 165.316 88.9969 165.023 88.9496C164.783 88.9138 164.521 88.8936 164.239 88.8858C164.482 86.9089 166.642 85.9804 168.507 85.7888C170.961 85.5385 173.685 86.4241 174.21 88.6031C173.884 89.7154 173.717 91.1357 174.342 92.3783L174.351 92.3949C174.339 92.422 174.331 92.4509 174.326 92.4816C174.323 92.5026 173.949 94.482 168.72 94.7857C168.891 94.5765 169.049 94.3551 169.176 94.1066C169.229 94.0047 169.278 93.8927 169.342 93.7452L169.347 93.7356C169.944 92.2211 170.415 91.8862 170.469 91.8477L170.469 91.8476C170.473 91.8448 170.474 91.8436 170.474 91.8436C170.635 91.7981 170.746 91.6511 170.744 91.4839L170.745 91.4831ZM163.505 88.8971C162.876 88.9295 162.166 89.017 161.361 89.1719C159.947 89.4371 158.658 89.6226 157.43 89.7372C157.463 89.704 157.489 89.6655 157.507 89.6217C158.037 89.3819 158.455 89.1772 158.841 88.9671C158.855 88.9619 158.868 88.9566 158.881 88.9496C159.429 88.667 159.874 88.4176 160.268 88.1717L160.282 88.1656C160.314 88.1507 160.342 88.1323 160.368 88.1104C161.727 87.2922 162.986 86.3506 164.126 85.3162C164.148 85.8037 164.205 86.2053 164.242 86.4346L164.248 86.4726L164.248 86.473C164.259 86.5361 164.266 86.5841 164.268 86.6149C164.275 86.7164 164.323 86.8048 164.394 86.8669C163.898 87.4182 163.584 88.0999 163.505 88.8971ZM174.854 93.1396C175.638 94.0401 176.901 94.6273 178.625 94.8872C178.945 94.9362 179.169 95.057 179.311 95.2565C179.528 95.5619 179.499 95.9767 179.483 96.1088C179.289 96.4615 177.918 98.6589 174.445 98.0437C173.676 97.5571 172.824 97.117 171.859 96.717C170.818 96.29 169.649 95.9128 168.235 95.5497C172.9 95.3843 174.388 93.9596 174.854 93.1388V93.1396ZM156.152 89.8431C156.135 89.844 156.118 89.8452 156.101 89.8463L156.077 89.8479L156.054 89.8493C156.083 89.8396 156.111 89.83 156.14 89.8195L156.153 89.8431H156.152ZM180.831 99.765C180.642 100.841 179.841 101.666 178.461 102.226C178.029 101.425 177.505 100.678 176.869 100.007C176.516 99.6268 176.102 99.261 175.639 98.8952C178.325 98.8882 179.639 97.2491 180.04 96.6217C180.194 96.6444 180.347 96.6777 180.495 96.717C180.619 96.8107 181.245 97.4154 180.832 99.7659L180.831 99.765ZM182.811 86.7418V87.5784C182.811 87.6886 182.86 87.7936 182.944 87.8636C184.278 88.9777 185.717 90.4881 185.717 90.9851C185.717 91.3439 185.458 91.827 185.245 92.156L184.39 91.5443C184.223 91.4244 183.99 91.4638 183.871 91.631C183.751 91.7972 183.79 92.03 183.957 92.1499L184.942 92.8543C184.884 93.221 184.647 93.9999 183.668 93.9999H182.78L182.555 93.5194C182.466 93.3339 182.245 93.2525 182.059 93.3409C181.874 93.4284 181.794 93.6507 181.881 93.8362L182.207 94.5293C182.268 94.6597 182.4 94.7428 182.544 94.7428H183.668C183.685 94.7428 183.701 94.7428 183.718 94.7426L183.738 94.7423L183.754 94.7419C183.813 95.0701 183.912 95.9496 183.41 96.4274C183.012 96.7993 182.797 96.8833 182.722 96.9017C182.441 96.7223 181.396 96.0975 180.236 95.8988C180.232 95.603 180.172 95.19 179.921 94.8321C179.66 94.461 179.262 94.2318 178.736 94.1512C176.818 93.8616 175.563 93.1528 175.005 92.044C174.081 90.2063 175.304 87.7228 175.563 87.2362L175.57 87.2222C175.588 87.1854 175.598 87.1478 175.605 87.1093C175.612 87.0507 175.606 86.9912 175.587 86.9369V86.9352C175.57 86.8862 175.542 86.8415 175.507 86.803C175.479 86.7733 175.445 86.7479 175.407 86.7286L175.393 86.7216C174.733 86.4101 174.307 85.731 174.307 84.9907C174.307 84.4394 174.54 83.9406 174.911 83.587C174.932 83.5713 174.953 83.5538 174.97 83.5336C175.311 83.2361 175.755 83.0558 176.242 83.0558C176.88 83.0558 177.472 83.3674 177.826 83.8889C177.836 83.9047 177.847 83.9196 177.86 83.9336C177.895 83.9738 177.938 84.0053 177.985 84.0263C178.032 84.0482 178.085 84.0596 178.139 84.0596C178.142 84.0571 178.153 84.0572 178.166 84.0572C178.175 84.0572 178.185 84.0572 178.193 84.0561C180.425 83.7725 181.735 85.1797 181.791 85.2401L181.798 85.2482L181.805 85.2544L181.813 85.2621L181.821 85.2701L181.822 85.2705L181.823 85.2716C182.296 85.7853 182.811 86.5046 182.811 86.7409V86.7418ZM181.979 81.8745C182.366 82.7531 182.123 83.7822 181.922 84.3624C181.677 84.1698 181.328 83.9344 180.884 83.7323C181.005 83.3 181.181 82.2324 180.622 80.6817C180.617 80.6667 180.611 80.6517 180.606 80.637L180.595 80.6091C181.272 80.9013 181.736 81.3249 181.979 81.8745ZM179.923 80.9346C180.391 82.235 180.27 83.1215 180.184 83.4741C179.768 83.3543 179.297 83.2764 178.775 83.2764C178.625 83.2764 178.47 83.2825 178.311 83.2965C178.305 83.2887 178.298 83.2809 178.292 83.2731C178.287 83.2667 178.281 83.2603 178.276 83.254L178.251 83.2247C178.235 83.2057 178.218 83.187 178.202 83.1687C178.387 83.1889 178.568 83.0725 178.611 82.8843C178.632 82.7924 179.06 80.8427 177.428 79.159C178.262 79.2281 179.436 79.5791 179.924 80.9337L179.923 80.9346ZM176.241 79.1205C178.331 80.6073 177.905 82.6323 177.886 82.718C177.874 82.7723 177.875 82.8257 177.886 82.8764C177.426 82.5159 176.849 82.3129 176.243 82.3129C175.807 82.3129 175.395 82.4179 175.03 82.6043C174.897 81.7108 174.436 80.8935 173.692 80.2538C172.913 79.5852 171.886 79.1468 170.787 78.9752C171.831 78.4117 174.067 77.5733 176.242 79.1214L176.241 79.1205ZM179.385 60.4721C178.74 62.5228 178.19 64.4366 177.658 66.2874L177.635 66.3694C176.404 70.6565 175.334 74.367 173.721 77.5042C171.499 77.4342 169.748 78.7433 169.723 78.7626C169.677 78.7994 169.641 78.844 169.616 78.893C169.42 78.8956 169.223 78.9087 169.027 78.928C169.213 78.5237 169.388 78.1159 169.541 77.6976C169.58 77.5917 169.619 77.4867 169.649 77.3939C169.683 77.3073 169.71 77.2268 169.734 77.1507L169.744 77.1238L169.759 77.0788L169.766 77.0575L169.773 77.0351C169.838 76.8461 169.898 76.6553 169.941 76.4891C169.946 76.472 169.95 76.4551 169.955 76.4383L169.956 76.4341L169.972 76.3797C169.996 76.3149 170.017 76.2467 170.035 76.1539V76.1504H170.037C170.039 76.1461 170.04 76.1414 170.042 76.1365C170.045 76.1275 170.047 76.1177 170.049 76.1075C170.079 76.0156 170.102 75.9176 170.119 75.8249L170.126 75.7986C170.156 75.7015 170.182 75.6035 170.182 75.5624V75.5588C170.223 75.4057 170.255 75.2534 170.275 75.1213C170.301 75.0005 170.325 74.8798 170.344 74.7651C170.349 74.739 170.354 74.7128 170.358 74.6865C170.363 74.6601 170.368 74.6336 170.372 74.6071L170.384 74.5324L170.392 74.479L170.397 74.4527C170.406 74.4063 170.413 74.3626 170.416 74.3285L170.421 74.2908C170.424 74.275 170.427 74.2583 170.43 74.2414C170.432 74.2276 170.433 74.2136 170.434 74.1998C170.466 73.9819 170.492 73.7544 170.517 73.5076L170.516 73.4838L170.516 73.4543C170.515 73.4278 170.514 73.3923 170.512 73.3501C170.55 72.9817 170.566 72.6141 170.566 72.2387C170.566 71.1352 170.452 69.9109 170.201 68.3261C170.201 68.2719 170.193 68.2203 170.187 68.194L170.186 68.1907L170.186 68.1906C170.184 68.1824 170.183 68.1739 170.181 68.1655C170.18 68.1615 170.178 68.1576 170.177 68.1537C170.12 67.7774 170.059 67.3987 169.998 67.0191L169.998 67.0172L169.997 67.0158L169.989 66.9636C169.446 63.5848 168.886 60.0914 170.208 57.019C170.929 55.3405 172.137 53.9194 173.888 52.6916C173.901 53.0915 174.015 53.5886 174.368 54.1303C175.303 55.5514 175.186 57.7269 175.016 59.2417V59.2513C174.995 59.4552 175.142 59.6373 175.346 59.6591C175.549 59.6819 175.731 59.534 175.755 59.331V59.3292C175.759 59.2951 176.004 57.3821 178.359 54.0751C180.614 50.902 183.392 49.6077 185.242 49.4546C185.807 49.4091 186.345 49.4791 186.802 49.5885C183.127 50.9965 179.894 58.8313 179.382 60.4721H179.385ZM60.4447 83.3253C60.5812 82.998 60.9785 82.4354 61.6016 82.4039C62.1958 82.3741 62.6123 82.6909 62.7733 82.8834C62.8748 83.0042 62.8888 83.1774 62.8075 83.3131C62.6508 83.5721 62.1844 84.0534 61.5001 84.0534C61.2323 84.0534 60.9312 83.9799 60.6022 83.7909C60.4403 83.6973 60.3721 83.4986 60.4447 83.3253ZM61.6392 83.1468C61.5272 83.1521 61.4292 83.216 61.3504 83.2938C61.5946 83.3402 61.7836 83.2755 61.9192 83.1853C61.8405 83.1582 61.7495 83.1433 61.6392 83.1468ZM179.249 88.03C179.449 87.8794 179.937 87.6694 180.501 87.8322V87.8313C181.099 88.0037 181.358 88.6434 181.415 88.9934C181.446 89.1781 181.334 89.3566 181.155 89.4109C180.944 89.4739 180.752 89.501 180.577 89.501C179.676 89.501 179.226 88.7764 179.118 88.4413C179.07 88.2899 179.123 88.1253 179.249 88.03ZM180.294 88.5463C180.19 88.5165 180.096 88.513 180.012 88.52H180.012C180.123 88.6382 180.292 88.7449 180.541 88.7554C180.482 88.6609 180.402 88.5778 180.294 88.5463ZM100.636 40.6668H101.752V54.5231H100.636V40.6668ZM93.3659 40.6668H92.2501V45.2199H93.3659V40.6668ZM96.541 40.6668H97.6568V49.8868H96.541V40.6668ZM135.639 40.6668H134.523V54.5888H135.639V40.6668ZM138.619 40.6668H139.734V49.9516H138.619V40.6668ZM144.024 40.6668H142.908V45.2856H144.024V40.6668ZM230.65 148.034C231.655 148.034 232.815 148.45 233.821 149.5L235.637 147.64C234.412 146.241 232.421 145.541 230.628 145.541C227.653 145.541 225.356 147.4 225.356 150.068C225.356 152.891 227.886 153.864 230.082 154.708C231.765 155.355 233.252 155.927 233.252 157.199C233.252 158.357 232.115 159.32 230.54 159.32C229.184 159.32 227.828 158.621 226.822 157.527L224.984 159.495C225.51 160.02 227.522 161.836 230.453 161.836C233.515 161.836 236.161 159.823 236.161 156.936C236.161 154.085 233.594 153.091 231.384 152.234C229.712 151.587 228.243 151.018 228.243 149.784C228.243 148.931 228.965 148.034 230.65 148.034ZM93.6096 148.296L85.4948 158.861H93.7409V161.419H81.9296V158.903L89.9132 148.449H82.1047V145.933H93.6096V148.295V148.296ZM3.17137 161.42H0L6.56151 145.934H9.40559L15.9015 161.42H12.6645L11.2643 158.008H4.52777L3.17137 161.42ZM5.42475 155.581H10.3892L7.91791 149.172L5.42475 155.581ZM21.6791 155.843V161.42H18.7702V145.934H25.0255C28.8532 145.934 30.7556 147.75 30.7556 150.725C30.7556 153.94 28.5679 155.843 25.0036 155.843H21.6791ZM21.6791 153.459H24.7411C26.8404 153.459 27.8468 152.408 27.8468 150.833C27.8468 149.346 26.9717 148.384 24.7411 148.384H21.6791V153.459ZM37.5403 161.42V155.843H40.8648C44.4291 155.843 46.6168 153.94 46.6168 150.725C46.6168 147.75 44.7144 145.934 40.8867 145.934H34.6314V161.42H37.5403ZM40.6023 153.459H37.5403V148.384H40.6023C42.8329 148.384 43.708 149.346 43.708 150.833C43.708 152.408 42.7016 153.459 40.6023 153.459ZM50.4914 161.42V145.934H61.2744V148.45H53.3346V152.387H59.918V154.749H53.3346V158.905H61.4923V161.421H50.4905L50.4914 161.42ZM68.125 145.934H65.2818V161.42H68.0812L68.0156 150.615H68.0375L75.3866 161.42H78.2736V145.934H75.496L75.5397 156.871H75.5179L68.125 145.934ZM97.3969 145.934V161.42L97.396 161.421H108.398V158.905H100.24V154.749H106.823V152.387H100.24V148.45H108.18V145.934H97.3969ZM115.117 158.861H121.591V161.419H112.185V145.934H115.116V158.86L115.117 158.861ZM134.06 158.861H127.586L127.585 158.86V145.934H124.654V161.419H134.06V158.861ZM137.126 161.42V145.934H147.909V148.45H139.969V152.387H146.552V154.749H139.969V158.905H148.127V161.421H137.126V161.42ZM158.279 145.934H151.914V161.42H154.801V155.493H157.469L161.21 161.42H164.709L160.466 155.034C162.193 154.596 163.9 153.109 163.9 150.615C163.9 147.706 161.866 145.934 158.279 145.934ZM154.78 148.384H157.798C159.788 148.384 160.992 149.062 160.992 150.724C160.992 152.299 159.942 153.24 157.864 153.24H154.78V148.384ZM184.531 154.727H177.225V161.42H174.295V145.934H177.204V152.212H184.531V145.934H187.461V161.42H184.531V154.727ZM191.972 145.934V155.602C191.972 158.904 193.984 161.836 198.271 161.836C202.536 161.836 204.614 158.904 204.614 155.602V145.934H201.683V155.361C201.683 157.329 200.786 159.189 198.293 159.189C195.8 159.189 194.881 157.33 194.881 155.361V145.934H191.972ZM208.992 155.602V145.934H211.901V155.361C211.901 157.33 212.82 159.189 215.313 159.189C217.806 159.189 218.703 157.329 218.703 155.361V145.934H221.634V155.602C221.634 158.904 219.557 161.836 215.291 161.836C211.004 161.836 208.992 158.904 208.992 155.602ZM53.4852 176.02C52.5086 176.146 52.4456 176.241 52.4456 177.17V178.493C52.4456 179.045 52.4613 179.565 52.5401 179.991C52.408 180.021 52.2703 180.053 52.1278 180.086L52.1276 180.086C51.2169 180.299 50.1076 180.558 48.9636 180.558C45.387 180.558 43.2124 178.336 43.2124 175.169C43.2124 171.844 45.9226 169.859 49.0738 169.859C50.3662 169.859 51.3839 170.063 51.9868 170.183C52.1335 170.213 52.2556 170.237 52.3511 170.253C52.3826 170.835 52.4613 171.797 52.5874 172.79L52.1148 172.884C51.7368 171.545 51.2791 170.977 50.2867 170.646C49.9244 170.52 49.2786 170.442 48.8218 170.442C46.4109 170.442 44.8506 172.096 44.8506 174.98C44.8506 177.485 46.1431 179.975 49.1998 179.975C49.7354 179.975 50.2237 179.865 50.5387 179.707C50.8695 179.518 51.0743 179.345 51.0743 178.699V177.407C51.0743 176.257 50.9483 176.131 49.4352 176.02V175.564H53.4843V176.02H53.4852ZM58.9031 180.211C59.0597 180.385 59.4071 180.511 59.6434 180.511L59.6452 180.509L60.9841 179.721L60.8265 179.28C60.6533 179.375 60.4485 179.453 60.2595 179.453C59.976 179.453 59.7082 179.233 59.7082 178.507V175.466C59.7082 174.647 59.4561 174.112 58.9048 173.639C58.5417 173.356 58.0534 173.214 57.5808 173.214C56.6821 173.404 55.7685 173.987 55.3117 174.317C54.9966 174.538 54.7919 174.727 54.7919 174.948C54.7919 175.326 55.1857 175.641 55.4849 175.641C55.7212 175.641 55.863 175.53 55.9417 175.278C56.0835 174.822 56.1938 174.475 56.367 174.254C56.5237 174.065 56.7451 173.892 57.1074 173.892C57.9265 173.892 58.4935 174.539 58.4935 175.657V175.972C58.147 176.256 56.9647 176.665 56.0039 176.996C55.1366 177.296 54.7113 177.8 54.7113 178.572C54.7113 179.58 55.5147 180.51 56.6339 180.51C57.0572 180.51 57.6942 180.072 58.2668 179.678L58.267 179.678L58.2673 179.678C58.3551 179.617 58.4413 179.558 58.525 179.502C58.6038 179.786 58.6983 180.006 58.9031 180.211ZM57.0277 177.186C57.3909 177.029 58.147 176.698 58.4935 176.524V178.982C58.1776 179.297 57.6106 179.549 57.201 179.549C56.697 179.549 56.0669 179.171 56.0669 178.336C56.0669 177.753 56.4292 177.454 57.0277 177.186ZM65.6282 175.28C65.3447 174.367 64.9351 173.736 63.9734 173.736C63.4221 173.736 62.9968 174.129 62.9968 174.759C62.9968 175.437 63.4536 175.752 64.3365 176.162C65.6912 176.808 66.3685 177.281 66.3685 178.321C66.3685 179.77 65.0454 180.511 63.8001 180.511C62.9801 180.511 62.2556 180.259 61.9248 180.07C61.846 179.613 61.7042 178.746 61.6412 178.227L62.098 178.148C62.3816 179.156 62.9337 179.976 64.0364 179.976C64.6349 179.976 65.139 179.566 65.139 178.904C65.139 178.195 64.7137 177.833 63.8789 177.423C62.7762 176.888 61.8775 176.384 61.8775 175.249C61.8775 174.099 62.8541 173.216 64.3357 173.216C64.8232 173.216 65.2422 173.301 65.5554 173.365L65.5555 173.365C65.6673 173.388 65.7656 173.408 65.8487 173.421C65.8581 173.496 65.8701 173.596 65.8837 173.71C65.9387 174.17 66.0219 174.866 66.085 175.17L65.6282 175.28ZM69.6606 180.511C69.8181 180.511 70.0702 180.448 70.3379 180.307L71.3776 179.755L71.2358 179.346C71.0153 179.456 70.653 179.598 70.2749 179.598C69.8654 179.598 69.3613 179.361 69.3613 178.085V174.051H71.0634C71.2524 173.91 71.2997 173.563 71.1579 173.406H69.3613C69.3613 172.65 69.3771 171.735 69.4086 171.073L69.1723 171.042C69.0233 171.198 68.8358 171.378 68.6481 171.558L68.6479 171.558C68.4574 171.74 68.2668 171.923 68.1161 172.082V173.406H67.3915L66.9662 173.862L67.0292 174.051H68.1161V178.636C68.1161 179.897 68.6525 180.511 69.6606 180.511ZM74.0389 178.022L74.0373 178.023L74.0389 178.024V178.022ZM74.795 178.179C74.508 178.179 74.2307 178.145 73.9703 178.078C73.6436 178.358 73.5191 178.633 73.5191 178.809C73.5191 179.093 73.7869 179.408 74.4966 179.408C74.7957 179.408 75.1156 179.404 75.4265 179.4H75.4269H75.4273H75.4275H75.4278H75.428C75.7224 179.396 76.0086 179.392 76.2617 179.392C77.2698 179.392 78.5614 179.723 78.5614 181.283C78.5614 182.922 76.6239 184.466 74.5281 184.466C72.7481 184.466 71.7864 183.426 71.7549 182.497C71.7549 182.151 71.8966 181.851 72.1487 181.599C72.4637 181.268 73.078 180.749 73.4412 180.465C72.8741 180.308 72.4646 179.945 72.2589 179.615C72.1172 179.378 72.0699 179.095 72.0699 178.937C72.6429 178.726 73.1582 178.313 73.4776 177.905C72.6685 177.533 72.1163 176.799 72.1163 175.8C72.1163 174.003 73.7239 173.169 74.9525 173.169C75.4723 173.169 75.9921 173.31 76.4655 173.562C77.1901 173.562 78.1361 173.436 78.5772 173.326L78.6717 173.468C78.5772 173.72 78.3251 174.161 78.0889 174.304C77.9322 174.304 77.6509 174.276 77.4148 174.253L77.414 174.253C77.2944 174.241 77.1864 174.23 77.1123 174.225C77.38 174.588 77.5691 175.092 77.5691 175.659C77.5691 177.376 76.1505 178.18 74.7959 178.18L74.795 178.179ZM75.1573 180.512C74.3854 180.512 74.0389 180.606 73.7554 180.842C73.3143 181.205 72.9993 181.677 72.9993 182.135C72.9993 183.001 73.8971 183.648 75.1109 183.648C76.6073 183.648 77.4588 182.876 77.4588 181.867C77.4588 181.331 77.2068 180.905 76.7657 180.717C76.3719 180.544 75.8197 180.512 75.1581 180.512L75.1573 180.512ZM74.795 173.673C74.0861 173.673 73.4561 174.319 73.4561 175.565C73.4561 176.81 74.0861 177.676 74.9525 177.676C75.6456 177.645 76.2608 177.062 76.2608 175.785C76.2608 174.556 75.6771 173.673 74.795 173.673ZM82.2306 180.511C82.7347 180.511 83.8382 180.243 84.8463 178.983H84.8446L84.5925 178.62C84.0097 179.156 83.4111 179.424 82.7653 179.424C81.646 179.424 80.3544 178.557 80.4017 176.446C82.277 176.383 84.2941 176.241 84.6091 176.178C84.8612 176.115 84.9084 175.973 84.9242 175.658C84.9242 174.398 83.8846 173.216 82.5142 173.216C81.6951 173.216 80.8278 173.625 80.1663 174.366C79.5204 175.06 79.1424 176.052 79.1424 177.123C79.1424 178.935 80.308 180.511 82.2306 180.511ZM80.4822 175.768C80.7027 174.492 81.4115 173.814 82.1361 173.814C83.0191 173.814 83.5704 174.57 83.5546 175.405C83.5546 175.642 83.4601 175.72 83.1766 175.72C82.2472 175.768 81.3643 175.768 80.4822 175.768ZM89.0668 173.373C89.3346 173.263 89.5709 173.216 89.7599 173.216C91.4463 173.216 92.8639 174.681 92.8639 176.556C92.8639 178.683 91.0358 180.526 88.9723 180.511C88.295 180.511 87.412 180.353 86.5457 179.943V171.088C86.5457 170.112 86.4984 170.017 85.4894 169.938V169.529C86.2298 169.434 87.2073 169.198 87.7901 168.993V173.925L89.066 173.374L89.0668 173.373ZM87.791 178.494C87.791 178.746 87.8067 178.888 87.8697 179.046C88.0587 179.439 88.6731 179.896 89.43 179.896C90.7847 179.896 91.4629 178.731 91.4629 176.95C91.4629 175.153 90.376 174.098 89.0677 174.098C88.6109 174.098 88.0911 174.24 87.7918 174.397V178.493L87.791 178.494ZM97.2099 180.511C97.7139 180.511 98.8174 180.243 99.8256 178.983L99.5735 178.62C98.9907 179.156 98.3913 179.424 97.7455 179.424C96.6262 179.424 95.3345 178.557 95.3818 176.446C97.2571 176.383 99.2742 176.241 99.5893 176.178C99.8413 176.115 99.8886 175.973 99.9043 175.658C99.9043 174.398 98.8647 173.216 97.4934 173.216C96.6743 173.216 95.8071 173.625 95.1455 174.366C94.4997 175.06 94.1217 176.052 94.1217 177.123C94.1217 178.935 95.2873 180.511 97.2099 180.511ZM95.4606 175.768C95.6811 174.492 96.3899 173.814 97.1154 173.814C97.9975 173.814 98.5488 174.57 98.533 175.405C98.533 175.642 98.4385 175.72 98.155 175.72C97.2256 175.768 96.3427 175.768 95.4606 175.768ZM104.472 180.322H100.849V179.881C101.841 179.787 101.935 179.708 101.935 178.683V175.406C101.935 174.367 101.872 174.319 100.959 174.208V173.814C101.731 173.688 102.44 173.499 103.181 173.169V174.901C103.732 174.082 104.394 173.215 105.182 173.215C105.766 173.215 106.096 173.578 106.096 173.971C106.096 174.334 105.844 174.681 105.56 174.838C105.403 174.933 105.277 174.917 105.151 174.807C104.914 174.57 104.725 174.413 104.441 174.413C104.11 174.413 103.527 174.901 103.181 175.705V178.668C103.181 179.707 103.259 179.786 104.473 179.881V180.322H104.472ZM114.695 180.211C114.852 180.385 115.199 180.511 115.435 180.511L115.437 180.509L116.776 179.721L116.619 179.28C116.445 179.375 116.24 179.453 116.051 179.453C115.768 179.453 115.5 179.233 115.5 178.507V175.466C115.5 174.647 115.248 174.112 114.697 173.639C114.334 173.356 113.845 173.214 113.373 173.214C112.474 173.404 111.56 173.987 111.104 174.317C110.789 174.538 110.584 174.727 110.584 174.948C110.584 175.326 110.978 175.641 111.277 175.641C111.513 175.641 111.655 175.53 111.734 175.278C111.875 174.822 111.986 174.475 112.159 174.254C112.317 174.065 112.537 173.892 112.899 173.892C113.718 173.892 114.285 174.539 114.285 175.657V175.972C113.939 176.256 112.757 176.665 111.796 176.996C110.929 177.296 110.503 177.8 110.503 178.572C110.503 179.58 111.308 180.51 112.426 180.51C112.849 180.51 113.486 180.072 114.059 179.678C114.147 179.618 114.233 179.558 114.317 179.502C114.396 179.786 114.49 180.006 114.695 180.211ZM112.821 177.186C113.183 177.029 113.939 176.698 114.285 176.524V178.982C113.97 179.297 113.403 179.549 112.993 179.549C112.489 179.549 111.859 179.171 111.859 178.336C111.859 177.753 112.221 177.454 112.821 177.186ZM124.919 179.96C124.163 180.07 123.312 180.275 122.509 180.511V179.299C121.658 180.007 120.964 180.511 120.098 180.511C119.042 180.511 118.128 179.866 118.128 178.148V175.091C118.128 174.24 118.002 174.145 117.608 174.067L117.167 173.988V173.579C117.845 173.547 118.884 173.39 119.421 173.295C119.374 173.799 119.374 174.555 119.374 175.596V177.738C119.374 179.125 120.099 179.519 120.808 179.519C121.391 179.519 121.974 179.267 122.51 178.763V175.092C122.51 174.24 122.321 174.13 121.784 174.052L121.28 173.989V173.58C122.289 173.533 123.392 173.359 123.754 173.296V178.575C123.754 179.362 123.88 179.473 124.479 179.504L124.92 179.52V179.961L124.919 179.96ZM128.068 173.736C129.029 173.736 129.439 174.367 129.723 175.28H129.723L130.18 175.17C130.116 174.865 130.032 174.165 129.977 173.705L129.977 173.704C129.964 173.592 129.952 173.494 129.943 173.421C129.86 173.408 129.763 173.388 129.651 173.365C129.338 173.301 128.918 173.216 128.43 173.216C126.948 173.216 125.972 174.099 125.972 175.249C125.972 176.384 126.871 176.888 127.973 177.423C128.808 177.833 129.233 178.195 129.233 178.904C129.233 179.566 128.729 179.976 128.131 179.976C127.028 179.976 126.476 179.156 126.192 178.148L125.736 178.227C125.799 178.746 125.94 179.613 126.019 180.07C126.35 180.259 127.074 180.511 127.894 180.511C129.14 180.511 130.463 179.77 130.463 178.321C130.463 177.281 129.786 176.808 128.43 176.162C127.548 175.752 127.091 175.437 127.091 174.759C127.091 174.129 127.516 173.736 128.068 173.736ZM143.648 172.554L143.648 172.553L144.121 172.506C144.042 171.592 143.979 170.457 143.979 169.717H143.601C143.364 170.016 143.238 170.079 142.797 170.079H136.558L136.507 170.079C136.103 170.08 135.934 170.08 135.707 169.717H135.344C135.297 170.599 135.202 171.592 135.108 172.553H135.58L135.626 172.424C135.805 171.913 135.926 171.568 136.1 171.277C136.368 170.805 136.62 170.71 137.486 170.71H138.921V178.384C138.921 179.629 138.795 179.787 137.33 179.881V180.322H141.914V179.881C140.418 179.787 140.292 179.614 140.292 178.384V170.71H141.868C142.734 170.71 142.892 170.821 143.144 171.246C143.317 171.53 143.506 172.049 143.648 172.553L143.647 172.553L143.648 172.554ZM144.071 180.322H147.695H147.696V179.881C146.482 179.786 146.403 179.707 146.403 178.668V175.705C146.75 174.901 147.333 174.413 147.664 174.413C147.948 174.413 148.137 174.57 148.373 174.807C148.499 174.917 148.625 174.933 148.783 174.838C149.066 174.681 149.318 174.334 149.318 173.971C149.318 173.578 148.988 173.215 148.405 173.215C147.617 173.215 146.955 174.082 146.403 174.901V173.169C145.662 173.499 144.953 173.688 144.182 173.814V174.208C145.095 174.319 145.158 174.367 145.158 175.406V178.683C145.158 179.708 145.064 179.787 144.071 179.881V180.322ZM154.988 180.511C154.752 180.511 154.405 180.385 154.248 180.211C154.043 180.006 153.949 179.786 153.87 179.502C153.787 179.558 153.702 179.616 153.615 179.676L153.612 179.678C153.039 180.072 152.402 180.51 151.979 180.51C150.86 180.51 150.056 179.58 150.056 178.572C150.056 177.8 150.482 177.296 151.349 176.996C152.31 176.665 153.492 176.256 153.839 175.972V175.657C153.839 174.539 153.271 173.892 152.452 173.892C152.09 173.892 151.869 174.065 151.712 174.254C151.539 174.475 151.428 174.822 151.287 175.278C151.208 175.53 151.066 175.641 150.83 175.641C150.531 175.641 150.137 175.326 150.137 174.948C150.137 174.727 150.342 174.538 150.657 174.317C151.113 173.987 152.027 173.404 152.926 173.214C153.398 173.214 153.887 173.356 154.25 173.639C154.801 174.112 155.053 174.647 155.053 175.466V178.507C155.053 179.233 155.321 179.453 155.604 179.453C155.794 179.453 155.998 179.375 156.172 179.28L156.329 179.721L154.99 180.509L154.988 180.511ZM153.839 176.524C153.492 176.698 152.736 177.029 152.373 177.186C151.774 177.454 151.412 177.753 151.412 178.336C151.412 179.171 152.042 179.549 152.546 179.549C152.956 179.549 153.523 179.297 153.839 178.982V176.524ZM164.42 179.957C164.486 179.946 164.541 179.936 164.582 179.928L164.583 179.929V179.488L164.079 179.456C163.496 179.424 163.386 179.314 163.386 178.494V168.993C162.803 169.198 161.699 169.419 160.912 169.529V169.938C162.03 170.033 162.141 170.064 162.141 171.073V173.389C161.81 173.247 161.29 173.216 161.069 173.216C158.911 173.216 156.988 174.854 156.988 177.044C156.988 179.25 158.659 180.511 159.919 180.511C160.107 180.511 160.533 180.416 161.163 180.054C161.305 179.967 161.478 179.869 161.651 179.77C161.825 179.672 161.998 179.573 162.14 179.487V180.511C162.951 180.222 163.955 180.041 164.417 179.958L164.42 179.957ZM160.486 173.83C161.1 173.83 161.777 174.082 162.14 174.633V178.967C161.762 179.25 161.147 179.534 160.58 179.534C159.572 179.518 158.39 178.509 158.39 176.603C158.39 174.334 159.73 173.83 160.486 173.83ZM165.32 180.322V179.881C166.312 179.787 166.422 179.708 166.422 178.636V175.39C166.422 174.414 166.375 174.351 165.43 174.193V173.815C166.25 173.673 166.99 173.469 167.668 173.185V178.636C167.668 179.708 167.778 179.786 168.802 179.881V180.322H165.32ZM166.959 171.641C166.518 171.641 166.124 171.247 166.124 170.806C166.124 170.302 166.518 169.939 166.975 169.939C167.416 169.939 167.778 170.302 167.778 170.806C167.778 171.247 167.416 171.641 166.959 171.641ZM171.921 180.511C172.078 180.511 172.33 180.448 172.598 180.307L173.637 179.755L173.496 179.346C173.275 179.456 172.913 179.598 172.535 179.598C172.125 179.598 171.621 179.361 171.621 178.085V174.051H173.323C173.512 173.91 173.56 173.563 173.418 173.406H171.621C171.621 172.65 171.637 171.735 171.669 171.073L171.432 171.042C171.283 171.198 171.096 171.378 170.908 171.558C170.717 171.74 170.527 171.923 170.376 172.082V173.406H169.651L169.226 173.862L169.289 174.051H170.376V178.636C170.376 179.897 170.912 180.511 171.921 180.511ZM174.282 180.322V179.881C175.274 179.787 175.384 179.708 175.384 178.636V175.39C175.384 174.414 175.337 174.351 174.392 174.193V173.815C175.212 173.673 175.952 173.469 176.63 173.185V178.636C176.63 179.708 176.74 179.786 177.764 179.881V180.322H174.282ZM175.921 171.641C175.48 171.641 175.086 171.247 175.086 170.806C175.086 170.302 175.48 169.939 175.937 169.939C176.378 169.939 176.74 170.302 176.74 170.806C176.74 171.247 176.378 171.641 175.921 171.641ZM185.515 176.745C185.515 174.712 184.05 173.216 182.08 173.216C180.584 173.216 178.583 174.429 178.583 176.997C178.583 178.761 179.907 180.511 182.08 180.511C183.624 180.511 185.515 179.298 185.515 176.745ZM180.063 176.509C180.063 174.681 180.931 173.751 181.891 173.751C183.278 173.751 184.035 175.248 184.035 177.092C184.035 179.25 183.215 179.959 182.238 179.959C180.946 179.959 180.063 178.51 180.063 176.509ZM191.059 180.322V179.881C191.973 179.787 192.067 179.677 192.067 178.606V176.006C192.067 174.903 191.673 174.163 190.633 174.163C189.987 174.163 189.373 174.541 188.884 174.982V178.669C188.884 179.755 188.978 179.787 189.908 179.882V180.323H186.504V179.882C187.544 179.772 187.638 179.709 187.638 178.669V175.423C187.638 174.399 187.528 174.351 186.678 174.209V173.799C187.449 173.673 188.222 173.469 188.884 173.169V174.414C189.199 174.193 189.545 173.957 189.956 173.689C190.397 173.406 190.806 173.216 191.263 173.216C192.523 173.216 193.312 174.145 193.312 175.674V178.668C193.312 179.74 193.406 179.786 194.32 179.881V180.322H191.059Z" fill="#000"/>
</svg>
