<?xml version="1.0" encoding="UTF-8"?><svg id="Ebene_1" xmlns="http://www.w3.org/2000/svg" viewBox="0 0 178.57 131.5"><defs><style>.cls-1{fill:#1d1d1b;}</style></defs><path class="cls-1" d="m48.29,116.71c.72-.09.8-.21.64-.64-.14-.42-.36-.97-.58-1.64h-2.37c-.17.48-.34.92-.49,1.36-.24.72-.07.81.84.92v.33h-2.61v-.33c.7-.09.88-.17,1.27-1.17l2.32-5.86.39-.07c.71,1.92,1.48,4.01,2.18,5.94.37.99.47,1.07,1.25,1.16v.33h-2.84v-.33Zm-1.1-5.53c-.35.93-.72,1.9-1.04,2.78h2.03l-.99-2.78Zm12.42,3.98c-.07.37-.4,1.53-.51,1.87h-5.26v-.33c1.01-.1,1.1-.16,1.1-1.1v-4.41c0-.95-.11-1.01-1-1.1v-.33h3.08v.33c-.89.09-1.01.14-1.01,1.1v4.52c0,.67.08.85.71.86.02,0,.76.01.83.01.58,0,.75-.08,1.01-.36.27-.28.51-.73.68-1.15l.36.1Zm.58,1.55c.69-.07.76-.12.76-.89v-2.28c0-.7-.04-.75-.68-.85v-.28c.6-.1,1.16-.24,1.66-.44,0,.46,0,.94,0,1.4v2.45c0,.76.07.82.78.89v.32h-2.53v-.32Zm1.19-5.78c-.33,0-.63-.29-.63-.63,0-.37.3-.64.64-.64s.61.27.61.64c0,.33-.27.63-.62.63Zm2.65,1.18v-.29c0-.8.3-1.63,1-2.21.39-.34.82-.53,1.27-.59.39,0,.73.14.92.35.11.13.13.25.07.41-.04.13-.17.29-.29.38-.13.08-.23.06-.34-.02-.23-.22-.55-.49-.91-.49-.73,0-.74.98-.74,1.95v.52h1.16c.06.1,0,.39-.12.47h-1.04v3.22c0,.79.11.81.93.9v.32h-2.67v-.32c.69-.07.76-.12.76-.84v-3.28h-.78l-.05-.13.25-.35h.58Zm4.77,5.05c-1.39,0-2.22-1.12-2.22-2.41,0-.76.29-1.48.75-1.97.48-.52,1.09-.81,1.68-.81.99,0,1.73.85,1.73,1.75,0,.22-.04.33-.21.38-.22.05-1.68.14-2.97.19-.02,1.45.85,2.06,1.65,2.06.45,0,.88-.18,1.29-.56l.18.26c-.71.91-1.51,1.11-1.89,1.11Zm-.06-4.76c-.5,0-.98.49-1.12,1.39.6,0,1.2,0,1.82-.03.19,0,.26-.05.26-.22.01-.59-.36-1.13-.95-1.13Zm4.44-.05c-.38,0-.68.27-.68.7,0,.47.32.69.93.97.95.45,1.45.79,1.45,1.55,0,1.04-.96,1.57-1.86,1.57-.58,0-1.11-.19-1.34-.32-.05-.31-.15-.95-.2-1.33l.33-.06c.21.71.61,1.31,1.38,1.31.43,0,.76-.29.76-.73,0-.48-.28-.73-.89-1.03-.77-.38-1.42-.74-1.42-1.57,0-.83.7-1.46,1.77-1.46.48,0,.87.11,1.1.15.03.27.12.98.17,1.25l-.33.08c-.22-.67-.53-1.1-1.18-1.1Zm4.54,4.66c-.19.1-.37.14-.47.14-.74,0-1.14-.43-1.14-1.35v-3.23h-.76l-.05-.13.3-.34h.51v-.94c.24-.23.61-.53.85-.76l.16.03c-.02.44-.03,1.07-.03,1.67h1.25c.1.11.06.37-.07.47h-1.17v2.84c0,.9.36,1.06.64,1.06.25,0,.49-.09.65-.17l.1.31-.76.4Zm5.41-3.78c-.28.62-.58,1.4-1.33,3.27-.73,1.79-.94,2.49-1.12,3.08-.07.24-.19.3-.35.3-.37,0-.72-.27-.72-.57,0-.15.08-.25.26-.39.37-.27.64-.53.78-.83.21-.42.37-.79.43-.94.04-.16.04-.27-.03-.45-.46-1.33-1.09-2.74-1.4-3.48-.24-.59-.34-.72-.94-.8v-.31h2.35v.31c-.51.08-.57.18-.43.59l1.05,2.68c.3-.75.74-1.95.97-2.64.13-.41.04-.54-.59-.63v-.31h2.04v.31c-.57.09-.69.18-.97.81Zm1.03,3.47c.7-.07.78-.13.78-.86v-5.31c0-.67-.06-.74-.75-.83v-.3c.63-.07,1.34-.24,1.73-.38,0,.52,0,1.05,0,1.58v5.25c0,.74.06.79.77.86v.32h-2.53v-.32Zm5.35.46c-1.39,0-2.22-1.12-2.22-2.41,0-.76.29-1.48.75-1.97.48-.52,1.09-.81,1.68-.81.99,0,1.73.85,1.73,1.75,0,.22-.04.33-.21.38-.22.05-1.68.14-2.97.19-.02,1.45.85,2.06,1.65,2.06.45,0,.88-.18,1.29-.56l.18.26c-.71.91-1.51,1.11-1.89,1.11Zm-.06-4.76c-.5,0-.98.49-1.12,1.39.6,0,1.2,0,1.82-.03.19,0,.26-.05.26-.22.01-.59-.36-1.13-.95-1.13Zm15.43-2.32c-.79.11-.9.21-1.21,1.13-.35,1.07-1.24,3.89-1.87,5.93h-.42c-.58-1.72-1.32-3.81-1.9-5.45-.64,1.88-1.28,3.75-1.85,5.45h-.41c-.54-1.86-1.19-3.99-1.8-5.96-.29-.9-.42-1.03-1.14-1.11v-.33h2.87v.33c-.83.09-.85.22-.69.78.42,1.47.86,2.93,1.31,4.44.61-1.74,1.26-3.65,1.82-5.46h.4c.62,1.87,1.25,3.62,1.9,5.47.46-1.44,1.08-3.41,1.31-4.32.17-.65.07-.81-.88-.91v-.33h2.59v.33Zm1.66,7.08c-1.39,0-2.22-1.12-2.22-2.41,0-.76.29-1.48.75-1.97.48-.52,1.09-.81,1.68-.81.99,0,1.73.85,1.73,1.75,0,.22-.04.33-.21.38-.22.05-1.68.14-2.97.19-.02,1.45.85,2.06,1.65,2.06.45,0,.88-.18,1.29-.56l.18.26c-.71.91-1.51,1.11-1.89,1.11Zm-.06-4.76c-.5,0-.98.49-1.12,1.39.6,0,1.2,0,1.82-.03.19,0,.26-.05.26-.22.01-.59-.36-1.13-.95-1.13Zm2.5,4.3c.7-.07.78-.13.78-.86v-5.31c0-.67-.06-.74-.75-.83v-.3c.63-.07,1.34-.24,1.73-.38,0,.52,0,1.05,0,1.58v5.25c0,.74.06.79.77.86v.32h-2.53v-.32Zm3.02,0c.7-.07.78-.13.78-.86v-5.31c0-.67-.06-.74-.75-.83v-.3c.63-.07,1.34-.24,1.73-.38,0,.52,0,1.05,0,1.58v5.25c0,.74.06.79.77.86v.32h-2.53v-.32Zm6.31.32v-.32c.62-.07.68-.14.68-.9v-1.86c0-.78-.3-1.26-.98-1.26-.43,0-.83.24-1.17.54v2.63c0,.76.06.78.69.85v.32h-2.44v-.32c.71-.08.78-.12.78-.86v-2.31c0-.72-.08-.75-.66-.85v-.3c.56-.09,1.15-.23,1.65-.44,0,.24,0,.6,0,.87.22-.16.47-.32.75-.51.32-.2.59-.33.92-.33.9,0,1.46.66,1.46,1.75v2.12c0,.75.07.78.69.85v.32h-2.35Zm5.24.13c-1.39,0-2.22-1.12-2.22-2.41,0-.76.29-1.48.75-1.97.48-.52,1.09-.81,1.68-.81.99,0,1.73.85,1.73,1.75,0,.22-.04.33-.21.38-.22.05-1.68.14-2.97.19-.02,1.45.85,2.06,1.65,2.06.45,0,.88-.18,1.29-.56l.18.26c-.71.91-1.51,1.11-1.89,1.11Zm-.06-4.76c-.5,0-.98.49-1.12,1.39.6,0,1.2,0,1.82-.03.19,0,.26-.05.26-.22.01-.59-.36-1.13-.95-1.13Zm4.44-.05c-.38,0-.68.27-.68.7,0,.47.32.69.93.97.95.45,1.45.79,1.45,1.55,0,1.04-.96,1.57-1.86,1.57-.58,0-1.11-.19-1.34-.32-.05-.31-.15-.95-.2-1.33l.33-.06c.21.71.61,1.31,1.38,1.31.43,0,.76-.29.76-.73,0-.48-.28-.73-.89-1.03-.77-.38-1.42-.74-1.42-1.57,0-.83.7-1.46,1.77-1.46.48,0,.87.11,1.1.15.03.27.12.98.17,1.25l-.33.08c-.22-.67-.53-1.1-1.18-1.1Zm4.2,0c-.38,0-.68.27-.68.7,0,.47.32.69.93.97.95.45,1.45.79,1.45,1.55,0,1.04-.96,1.57-1.86,1.57-.58,0-1.11-.19-1.34-.32-.05-.31-.15-.95-.2-1.33l.33-.06c.21.71.61,1.31,1.38,1.31.43,0,.76-.29.76-.73,0-.48-.28-.73-.89-1.03-.77-.38-1.42-.74-1.42-1.57,0-.83.7-1.46,1.77-1.46.48,0,.87.11,1.1.15.03.27.12.98.17,1.25l-.33.08c-.22-.67-.53-1.1-1.18-1.1Z"/><path class="cls-1" d="m68.54,126.82c-.16.54-.45,1.35-.62,1.71-.32.07-1.2.27-2.05.27-2.73,0-4.08-1.81-4.08-3.73,0-2.29,1.74-3.86,4.28-3.86.96,0,1.76.21,2.11.26.05.51.12,1.21.21,1.75l-.36.08c-.23-.77-.5-1.22-1.08-1.46-.29-.13-.74-.2-1.14-.2-1.81,0-2.75,1.37-2.75,3.2,0,2.14,1.11,3.53,2.87,3.53,1.11,0,1.68-.52,2.25-1.66l.35.12Zm3.48-3.24c1.43,0,2.46,1.08,2.46,2.51,0,1.81-1.33,2.68-2.47,2.68-1.57,0-2.51-1.25-2.51-2.51,0-1.8,1.42-2.68,2.52-2.68Zm-.13.39c-.65,0-1.24.64-1.24,1.94,0,1.42.6,2.45,1.48,2.45.65,0,1.2-.47,1.2-2.02,0-1.35-.51-2.38-1.45-2.38Zm9.44,4.34c.62-.07.7-.11.7-.88v-1.88c0-.82-.3-1.26-.93-1.26-.39,0-.76.2-1.17.54.01.13.03.27.03.48v2.19c0,.69.09.75.68.82v.32h-2.41v-.32c.66-.07.75-.11.75-.83v-1.94c0-.82-.27-1.24-.9-1.24-.42,0-.82.26-1.16.54v2.65c0,.72.08.77.67.83v.32h-2.43v-.32c.72-.07.78-.12.78-.84v-2.32c0-.7-.04-.75-.65-.86v-.29c.54-.08,1.09-.22,1.62-.44,0,.27,0,.63,0,.89.24-.18.47-.36.8-.56.29-.19.54-.3.9-.3.55,0,1,.33,1.22.9.3-.24.58-.42.86-.61.25-.16.56-.29.88-.29.89,0,1.42.63,1.42,1.73v2.16c0,.73.06.76.69.83v.32h-2.36v-.32Zm9.14,0c.62-.07.7-.11.7-.88v-1.88c0-.82-.3-1.26-.93-1.26-.39,0-.76.2-1.17.54.01.13.03.27.03.48v2.19c0,.69.09.75.68.82v.32h-2.41v-.32c.66-.07.75-.11.75-.83v-1.94c0-.82-.27-1.24-.9-1.24-.42,0-.82.26-1.16.54v2.65c0,.72.08.77.67.83v.32h-2.43v-.32c.72-.07.78-.12.78-.84v-2.32c0-.7-.04-.75-.65-.86v-.29c.54-.08,1.09-.22,1.62-.44,0,.27,0,.63,0,.89.24-.18.47-.36.8-.56.29-.19.54-.3.9-.3.55,0,1,.33,1.22.9.3-.24.58-.42.86-.61.25-.16.56-.29.88-.29.89,0,1.42.63,1.42,1.73v2.16c0,.73.06.76.69.83v.32h-2.36v-.32Zm8.37.06c-.56.08-1.18.23-1.78.39,0-.19,0-.57,0-.84-.58.48-1.07.84-1.68.84-.78,0-1.41-.48-1.41-1.66v-2.2c0-.59-.09-.65-.37-.71l-.3-.06v-.3c.49-.02,1.26-.13,1.68-.2-.03.38-.03.92-.03,1.64v1.54c0,.94.49,1.21.97,1.21.4,0,.78-.16,1.13-.5v-2.62c0-.59-.12-.67-.49-.72l-.35-.05v-.3c.7-.03,1.51-.15,1.82-.2v3.73c0,.56.09.65.5.67h.3v.33Zm3.75.26v-.32c.62-.07.68-.14.68-.9v-1.86c0-.78-.3-1.26-.98-1.26-.43,0-.83.24-1.17.54v2.63c0,.76.06.78.69.85v.32h-2.44v-.32c.71-.08.78-.12.78-.86v-2.31c0-.72-.08-.75-.66-.85v-.3c.56-.09,1.15-.23,1.65-.44,0,.24,0,.6,0,.87.22-.16.47-.32.75-.51.32-.2.59-.33.92-.33.9,0,1.46.66,1.46,1.75v2.12c0,.75.07.78.69.85v.32h-2.35Zm2.99-.32c.69-.07.76-.12.76-.89v-2.28c0-.7-.04-.75-.68-.85v-.28c.6-.1,1.16-.24,1.66-.44,0,.46,0,.94,0,1.4v2.45c0,.76.07.82.78.89v.32h-2.53v-.32Zm1.19-5.78c-.33,0-.63-.29-.63-.63,0-.37.3-.64.64-.64s.61.27.61.64c0,.33-.27.63-.62.63Zm4.06,6.09c-.19.1-.37.14-.47.14-.74,0-1.14-.43-1.14-1.35v-3.23h-.76l-.05-.13.3-.34h.51v-.94c.24-.23.61-.53.85-.76l.16.03c-.02.44-.03,1.07-.03,1.67h1.25c.1.11.06.37-.07.47h-1.17v2.84c0,.9.36,1.06.64,1.06.25,0,.49-.09.65-.17l.1.31-.76.4Zm5.41-3.78c-.28.62-.58,1.4-1.33,3.27-.73,1.79-.94,2.49-1.12,3.08-.07.24-.19.3-.35.3-.37,0-.72-.27-.72-.57,0-.15.08-.25.26-.39.37-.27.64-.53.78-.83.21-.42.37-.79.43-.94.04-.16.04-.27-.03-.45-.46-1.33-1.09-2.74-1.4-3.48-.24-.59-.34-.72-.94-.8v-.31h2.35v.31c-.51.08-.57.18-.43.59l1.05,2.68c.3-.75.74-1.95.97-2.64.13-.41.04-.54-.59-.63v-.31h2.04v.31c-.57.09-.69.18-.97.81Z"/><g><path class="cls-1" d="m130.61,58.61c-.35-.1-.66.03-.79.12-.08.06-.11.16-.08.26.07.21.35.67.92.67.11,0,.23-.02.36-.06.11-.03.18-.14.16-.26-.04-.22-.2-.62-.58-.73Z"/><path class="cls-1" d="m51.31,54.99c-.39.02-.65.38-.73.59-.04.11,0,.23.1.29.21.12.4.17.57.17.43,0,.73-.31.83-.47.05-.08.04-.19-.02-.27-.1-.12-.37-.33-.74-.31Z"/></g><path class="cls-1" d="m178.19,90.21c-.89-1.02-2.34-1.53-3.65-1.53-2.17,0-3.84,1.35-3.84,3.3,0,3.63,5.75,3.06,5.75,5.19,0,.85-.83,1.55-1.98,1.55-.99,0-1.98-.51-2.71-1.31l-1.34,1.44c.38.38,1.85,1.71,3.99,1.71s4.16-1.47,4.16-3.57c0-3.65-5.77-3.12-5.77-5.21,0-.62.53-1.27,1.75-1.27.73,0,1.58.3,2.31,1.07l1.32-1.35Zm-15.44,10.34c3.11,0,4.62-2.14,4.62-4.54v-7.04h-2.13v6.87c0,1.43-.65,2.79-2.47,2.79s-2.49-1.35-2.49-2.79v-6.87h-2.12v7.04c0,2.41,1.47,4.54,4.59,4.54m-13.12,0c3.11,0,4.62-2.14,4.62-4.54v-7.04h-2.14v6.87c0,1.43-.65,2.79-2.47,2.79s-2.49-1.35-2.49-2.79v-6.87h-2.12v7.04c0,2.41,1.47,4.54,4.59,4.54m-10.71-.3h2.14v-11.28h-2.14v4.57h-5.34v-4.57h-2.12v11.28h2.14v-4.88h5.32v4.88Zm-24.98,0h2.1v-4.32h1.94l2.73,4.32h2.55l-3.09-4.65c1.26-.32,2.5-1.4,2.5-3.22,0-2.12-1.48-3.41-4.1-3.41h-4.64v11.28Zm6.61-7.79c0,1.15-.76,1.83-2.28,1.83h-2.25v-3.54h2.2c1.45,0,2.33.49,2.33,1.71m-10.05,7.79v-1.83h-5.94v-3.03h4.8v-1.72h-4.8v-2.87h5.78v-1.83h-7.86v11.28h8.02Zm-15.14-11.28h-2.14v11.28h6.85v-1.86h-4.72v-9.42Zm-9.26,0h-2.14v11.28h6.85v-1.86h-4.72v-9.42Zm-5.57,11.28v-1.83h-5.94v-3.03h4.8v-1.72h-4.8v-2.87h5.79v-1.83h-7.86v11.28h8.02Zm-11.47-11.28h-8.38v1.83h5.69l-5.82,7.62v1.83h8.61v-1.86h-6.01l5.91-7.7v-1.72Zm-21.26,11.28h2.04l-.05-7.87h.02l5.36,7.87h2.1v-11.28h-2.02l.03,7.97h-.02l-5.39-7.97h-2.07v11.28Zm-3.43,0v-1.83h-5.94v-3.03h4.8v-1.72h-4.8v-2.87h5.78v-1.83h-7.86v11.28h8.02Zm-17.15-9.5h2.23c1.63,0,2.26.7,2.26,1.78,0,1.15-.73,1.91-2.26,1.91h-2.23v-3.7Zm2.42,5.43c2.6,0,4.19-1.39,4.19-3.73,0-2.17-1.39-3.49-4.18-3.49h-4.56v11.28h2.12v-4.06h2.42Zm-13.68-5.43h2.23c1.62,0,2.26.7,2.26,1.78,0,1.15-.73,1.91-2.26,1.91h-2.23v-3.7Zm2.42,5.43c2.6,0,4.19-1.39,4.19-3.73,0-2.17-1.39-3.49-4.18-3.49h-4.56v11.28h2.12v-4.06h2.42Zm-12.62-4.86l1.8,4.67h-3.62l1.82-4.67Zm-2.47,6.44h4.91l1.02,2.49h2.36l-4.73-11.28h-2.07l-4.78,11.28h2.31l.99-2.49Z"/><path class="cls-1" d="m91.11,13.29c0-1.07-.86-1.93-1.93-1.93s-1.93.86-1.93,1.93c0,.14.01.27.04.4h0l1.89,9.46,1.89-9.46c.03-.13.04-.26.04-.4"/><path class="cls-1" d="m136,33s-1.06-.6-2.25-.5c-1.34.11-3.35,1.03-4.95,3.29-.6.84-1,1.55-1.27,2.12-.04-.73-.19-1.47-.58-2.06-.4-.62-.18-1.08-.18-1.1.05-.1.03-.22-.05-.29-.08-.07-.2-.09-.29-.03-1.27.79-2.17,1.71-2.78,2.78C120.33,20.06,111.64,0,89.18,0s-31.26,20.05-34.48,37.17c-.57-.99-1.44-1.93-2.77-2.76-.09-.06-.21-.05-.29.03s-.1.19-.06.29c0,.02.23.49-.18,1.1-.39.6-.55,1.32-.58,2.06-.27-.57-.67-1.27-1.26-2.11-1.61-2.26-3.61-3.18-4.95-3.29-1.2-.1-2.21.48-2.25.5-.1.06-.15.19-.1.3.04.11.16.17.28.15,2.16-.44,4.8,4.85,5.49,7.03.44,1.39.81,2.68,1.17,3.94.88,3.08,1.65,5.74,2.88,7.97-.07.17-.11.36-.12.55,0,.09,0,.18,0,.26-1.41.08-1.86.54-2.43,1.11-.2.2-.4.41-.65.61-.17.08-1.66.45-2.97.76-.1.02-.18.11-.19.22,0,.07-.13,1.67.95,2.19.61.29,1.15.25,2.45.15l.69-.05c.23,0,.43.19.44.42,0,.24-.18.44-.41.46l-2.52.07c-.1,0-.19.07-.22.17-.03.1,0,.2.08.27.04.03,1.09.84,1.99,1.09.75.21,1.79.2,2.75.07h-.01c-1.49.67-3.33,1.49-4.06,3.44-.76,2.04-.12,5.18.44,5.93-.17.33-.31.53-.4.64-.15.17-.23.2-.28.22-.07.04-.12.1-.13.18-.01.08.02.15.07.21.06.06.43.36,1.42.17.46-.09.86-.24,1.16-.39-.09.49-.17,1.29-.1,2.47.12,2.15,2.15,3.7,2.23,3.76.08.06.2.06.29,0,.09-.06.12-.17.09-.27-.91-2.84,4.13-8.95,12.25-12.89h16.97c.38,1.04,1.38,1.76,2.5,1.76,1.06,0,2.02-.64,2.44-1.58.42.95,1.38,1.58,2.44,1.58s2.01-.63,2.44-1.56c.43.94,1.38,1.56,2.43,1.56,1.13,0,2.13-.72,2.5-1.76h16.88c8.12,3.94,13.16,10.05,12.25,12.89-.03.1,0,.21.09.27.04.03.09.04.14.04s.1-.02.15-.05c.09-.06,2.12-1.61,2.24-3.76.06-1.18-.02-1.99-.11-2.47.29.14.69.3,1.16.39.9.17,1.28-.05,1.41-.15.08-.06.12-.16.09-.25-.02-.09-.09-.16-.19-.18,0,0-.3-.11-.73-1.06-.1-.21-.2-.46-.3-.75-.06-.17-.13-.33-.2-.5,1.05-.44,1.69-1.13,1.84-2,.16-.89.11-1.48,0-1.86.33.15.54.3.55.3.13.09.43.16,1.03-.4.52-.49.43-1.29.37-1.58.57-.23.78-.81.81-1.19.14-.19.51-.74.51-1.22,0-.67-1.39-1.92-1.94-2.39v-.44c0-.37-.45-.93-.7-1.21.16-.38.49-1.36.1-2.23-.27-.61-.82-1.03-1.63-1.26-.03-.01-.07-.01-.1,0-.65-.8-1.72-.91-2.34-.83-.46-.31-.91-.48-1.35-.56,1.05-2.1,1.75-4.54,2.56-7.35.36-1.25.73-2.54,1.16-3.92.68-2.18,3.3-7.49,5.48-7.03.12.02.23-.04.28-.15.04-.11,0-.24-.1-.3ZM89.18.49c22.39,0,30.9,20.32,34.1,37.4-.91,2.16-.53,4.54-.16,6.84.04.25.08.51.13.81.04.53.21,4.72-3.27,8.27-.1-6.71-.91-19.01-5.02-29.69-5.17-13.44-13.86-20.26-25.83-20.26s-20.83,6.85-25.94,20.35c-4.03,10.65-4.75,22.87-4.81,29.6-3.45-3.53-3.3-7.76-3.27-8.25,0-.01,0-.02,0-.03.04-.26.08-.53.13-.8.36-2.23.74-4.65-.17-6.83C58.15,20.82,66.58.49,89.18.49Zm4.91,57.5s.01,0,.02,0c3.74-2.32,7.04-2.89,9.71-3.26.83-.12,1.62-.23,2.37-.39,1.41-.31,2.44-.76,3.36-1.46,3.76-2.89,3.49-6.03,3.15-7.35,1.17.73,1.86,1.52,2.1,2.4.27,1-.02,2.19-.89,3.65-.05.09-.04.21.03.29.07.08.19.1.29.06,0,0,.55-.26,1.37-.34.32-.03.57-.03.77,0-.1.07-.21.15-.29.25-.1.11-.17.31-.3.64-.38,1.01-1.18,3.12-3.47,3.85-.75.24-2.17.21-4.11-.07-1.14-.17-2.12-.38-2.54-.47-.01,0-.03,0-.04-.01-.1-.04-.22,0-.28.09-.07.11-.04.26.07.34.05.03.09.04.07.03.02,0,.04.02.07.02.5.17,2.16.77,3.24,1.52.34.23.59.46.77.72,0,0,0,0,0,0,.1.16.18.39.23.67.03.14.04.27.05.4,0,.01,0,.02,0,.04,0,.05,0,.1,0,.15-.56-.35-1.27-.65-2.12-.87-2.13-.56-5.06-.7-8.72-.42-.86.06-1.7.2-2.57.42-.7.18-1.4.41-2.13.71.03-.16.05-.31.05-.47v-.03c0-.38-.1-.75-.25-1.1Zm-4.87-.93c-.89,0-1.69-.54-2.03-1.37-.11-.26-.16-.53-.16-.82s.05-.57.16-.83c.34-.83,1.13-1.36,2.03-1.36.94,0,1.77.6,2.07,1.49.08.22.12.45.12.7s-.04.48-.12.7c-.3.89-1.13,1.48-2.07,1.48Zm.28.47c-.1.14-.19.3-.27.46-.07-.16-.16-.32-.27-.46.18.02.36.02.53,0Zm-.52,1.56h.01s0,.02,0,.03h-.01c0,.63-.29,1.23-.77,1.64-.27.24-.61.41-.97.48-.15.03-.3.04-.45.04-.84,0-1.61-.49-1.97-1.24,0-.01-.02-.05-.03-.06,0,0,0,0,0,0-.12-.27-.19-.56-.19-.89,0-.35.08-.69.25-1.01,0-.02.02-.04.05-.08.38-.68,1.11-1.1,1.89-1.1,1.21,0,2.19.98,2.19,2.19Zm.25,1.1c.07.16.16.32.27.46-.09,0-.18-.01-.27-.01-.09,0-.17,0-.26.01.1-.14.19-.3.27-.46Zm.25-1.1c0-1.21.98-2.19,2.19-2.19.77,0,1.48.41,1.9,1.1,0,.02.02.04.03.06.17.32.25.67.25,1.02v.03c0,.27-.06.55-.17.81,0,0,0,0,0,0-.03.08-.07.15-.11.23-.17.32-.44.6-.76.8t0,0h0s0,0,0,0h0s0,0,0,0c0,0,0,0,0,0,0,0,0,0,0,0h0s0,0,0,0c0,0,0,0,0,0h0s0,0,0,0c0,0,0,0,0,0h0s0,0,0,0c0,0,0,0,0,0,0,0-.02.01-.03.02-.02.01-.04.02-.08.04-.48.24-1.05.31-1.52.18-.36-.08-.69-.26-.96-.51-.45-.4-.71-.98-.72-1.62Zm2.19-2.67c-.09,0-.18,0-.27.01.15-.21.27-.44.35-.69.1-.27.15-.56.15-.86s-.05-.59-.14-.86c-.36-1.09-1.38-1.82-2.53-1.82s-2.06.65-2.48,1.67c-.13.32-.2.66-.2,1.01s.07.69.2,1.01c.08.2.18.38.3.55-.99-.09-1.99.38-2.5,1.21-.04-.02-.05-.03-.08-.05,0,0-.06-.04-.07-.04,0,0-.05-.03-.06-.04,0,0,0,0-.01,0,0,0-.01,0-.02-.01-.02-.02-.05-.03-.1-.06-3.81-2.37-7.02-2.82-9.59-3.18-.59-.08-1.15-.17-1.69-.26,3.11-3.09,6.98-5.23,11.26-6.18l.07-.02c.14-.03.28-.06.4-.09.04,0,.07-.01.1-.02.67-.13,1.28-.22,1.87-.28l.31-.03c.73-.08,1.47-.12,2.24-.12h.08c.73,0,1.46.04,2.19.11.08,0,.16.01.25.02.63.06,1.28.16,1.92.28l.08.02c.15.03.29.05.44.09l.09.02c4.3.94,8.2,3.07,11.33,6.17-.58.11-1.18.2-1.82.29-2.58.36-6.04.96-9.87,3.34,0,0-.01.01-.02.01-.49-.73-1.3-1.18-2.19-1.18Zm-7.49,3.23c-.78-.32-1.52-.57-2.25-.76-.86-.22-1.7-.36-2.56-.42-3.66-.28-6.6-.14-8.72.42-.85.22-1.56.51-2.12.87.01-.25.04-.45.06-.59.05-.27.13-.5.26-.71.21-.3.63-.64,1.23-.98,0,0,.01,0,.02-.01,1.17-.67,2.65-1.17,2.81-1.22.12-.04.19-.17.15-.29-.04-.12-.16-.2-.29-.17-.33.08-1.22.27-2.28.43-2.1.34-3.64.38-4.44.12-2.29-.73-3.09-2.84-3.47-3.85-.12-.33-.2-.53-.3-.64-.09-.1-.19-.19-.3-.25.2-.02.45-.03.77,0,.82.08,1.36.34,1.37.34.1.05.21.02.28-.06.07-.08.08-.2.03-.29-.87-1.46-1.16-2.65-.88-3.65.24-.88.93-1.67,2.1-2.4-.34,1.32-.61,4.46,3.15,7.35,1.23.95,2.57,1.3,3.61,1.51.68.14,1.39.24,2.14.34,2.66.37,5.68.8,9.44,3.13l.19.12c.06.03.07.04.14.07-.15.33-.21.67-.21,1.07,0,.18.02.35.06.52Zm24.86-2.27c-.36-.25-.77-.48-1.19-.68.09.01.18.03.27.04,2.04.3,3.5.32,4.33.06,2.52-.8,3.37-3.06,3.78-4.15.08-.21.17-.44.21-.49.16-.19.42-.28.57-.34.13-.05.29-.11.29-.3,0-.09-.05-.19-.23-.26-.2-.07-.66-.25-1.52-.16-.35.04-.65.1-.9.17.69-1.33.89-2.47.62-3.46-.31-1.14-1.25-2.13-2.88-3.02-.09-.05-.21-.04-.28.04-.08.07-.1.19-.05.28.02.04,1.78,3.87-2.8,7.39-.84.64-1.8,1.06-3.09,1.35-3.11-3.17-7.02-5.38-11.35-6.41v-4.13c0-5.01,4.48-9.16,9.66-9.16,1.38,0,2.7.29,3.89.81h0c.17.08.36.12.56.12.77,0,1.4-.63,1.4-1.4,0-.61-.4-1.13-.95-1.32h0c-1.16-.4-2.4-.62-3.69-.62-6.27,0-11.36,5.08-11.36,11.35h0v4.23l-.06-.02c-.15-.03-.31-.06-.45-.09-.03,0-.06-.02-.09-.02-.36-.07-.71-.1-1.06-.15v-3.94c0-8.46,6-15.51,14.02-17.04.82-.13,1.45-.84,1.45-1.7,0-.95-.77-1.73-1.73-1.73-.12,0-.23.01-.34.03,0,0,0,0,0,0,0,0,0,0,0,0-7.92,1.61-13.88,8.61-13.88,17v7.3c-.14-.02-.28-.05-.41-.06-.09-.01-.18-.02-.27-.03-.32-.03-.65-.03-.97-.05v-10.81c0-7.29,3.66-13.71,9.3-17.48.45-.3.75-.82.75-1.4,0-.93-.75-1.68-1.68-1.68-.42,0-.81.16-1.1.41-4.7,3.82-7.72,9.63-7.76,16.15h0v14.79c-.26,0-.51-.04-.77-.04h-.13c-.27,0-.54.01-.82.02v-14.77h0c-.04-6.52-3.06-12.33-7.76-16.15-.3-.26-.68-.41-1.1-.41-.93,0-1.68.75-1.68,1.68,0,.59.3,1.1.75,1.4,5.64,3.77,9.3,10.19,9.3,17.48v10.8c-.31.02-.63.04-.94.07l-.31.03c-.13.01-.27.03-.4.05v-7.31c0-8.39-5.96-15.39-13.88-17,0,0,0,0,0,0,0,0,0,0,0,0-.11-.02-.22-.03-.34-.03-.95,0-1.73.77-1.73,1.73,0,.86.63,1.57,1.45,1.7,8.02,1.53,14.02,8.58,14.02,17.04v3.95c-.33.05-.67.11-1.02.18h-.08c-.15.04-.29.07-.43.11l-.07.02s-.03,0-.05.01v-4.25h0c0-6.28-5.09-11.36-11.36-11.36-1.29,0-2.54.22-3.69.62h0c-.55.19-.95.71-.95,1.32,0,.77.63,1.4,1.4,1.4.2,0,.39-.04.56-.12h0c1.19-.52,2.5-.81,3.89-.81,5.18,0,9.66,4.14,9.66,9.16v4.17c-4.26,1.05-8.12,3.25-11.19,6.4-1.39-.29-2.37-.71-3.24-1.38-4.57-3.51-2.87-7.23-2.8-7.39.05-.1.02-.21-.05-.28-.08-.07-.19-.09-.28-.04-1.63.89-2.57,1.88-2.88,3.02-.27,1-.07,2.13.62,3.46-.24-.07-.55-.13-.9-.17-.86-.09-1.32.08-1.55.17-.1.03-.18.14-.19.24,0,.19.16.25.29.3.15.06.4.16.56.34.04.05.13.29.21.49.41,1.09,1.26,3.34,3.78,4.15,1.08.35,3.08.14,4.59-.1-.23.11-.45.23-.67.35h-.02c-.62.37-1.07.72-1.34,1.08-1.33-.04-2.4-.17-3.18-.4-2.63-.76-4.8-1.92-6.45-3.43.02-6.59.68-19.07,4.78-29.9,5.03-13.29,13.61-20.04,25.49-20.04s20.29,6.71,25.38,19.95c4.18,10.85,4.92,23.41,5,29.98-1.66,1.52-3.82,2.68-6.45,3.44-.78.22-1.84.36-3.18.4-.18-.25-.46-.5-.83-.75Zm-59.4-13.08c-.36-1.25-.73-2.55-1.17-3.95-.34-1.1-2.52-6.34-4.96-7.26.31-.08.67-.13,1.06-.1,1.23.1,3.09.96,4.6,3.08,1.56,2.19,1.73,3.46,1.73,3.51h0c.02.14.14.23.27.22.13-.01.23-.13.22-.27h0s0,0,0,0c-.11-1.01-.19-2.46.43-3.41.24-.36.31-.7.32-.96,3.71,2.61,3.15,6.12,2.61,9.52-.2,1.23-.38,2.4-.38,3.53,0,.26.01.52.03.77v.1s.01.07.01.07v.05c.01.05.02.1.03.15,0,.07.02.14.03.2.1.73.28,1.44.53,2.12.03.07.05.15.08.22-.08-.09-.16-.18-.26-.25-.43-.34-.98-.46-1.52-.33-.38.09-.71.3-.95.6-1.13-2.13-1.86-4.68-2.7-7.62Zm-1.36,20.05c.66-1.76,2.4-2.53,3.8-3.16.48-.21.94-.42,1.28-.63.02,0,.12-.06.26-.16.42-.31,1.2-1.11,1.18-2.78,0-.29-.06-.59-.16-.87-.11-.29-.26-.55-.44-.76-.09-.1-.24-.11-.34-.02-.1.09-.11.24-.02.34.15.17.27.37.35.6.08.22.13.46.13.7.01,1.11-.37,1.77-.7,2.13-.85.48-3.12.79-4.33.45-.41-.11-.87-.37-1.23-.59l1.79-.05c.5-.03.89-.46.88-.96-.02-.5-.43-.89-.93-.89,0,0-.07,0-.07,0l-.66.05c-1.24.1-1.71.13-2.2-.1-.6-.29-.67-1.16-.68-1.53,2.78-.65,2.91-.75,2.96-.79.29-.24.52-.46.72-.67.57-.57.94-.95,2.38-.98.08,0,.15-.04.19-.1.05-.06.06-.14.04-.21-.04-.13-.05-.27-.05-.41.03-.56.44-1.06.97-1.19.4-.09.8,0,1.11.24.31.25.49.61.49,1.01,0,.2-.05.4-.14.59-.06.12-.01.26.1.32,1.02.54,1.88,1.72,2.55,3.51.2.52.32,1.15.39,1.93-.1.02-.22.05-.33.08-.01,0-.02,0-.04.01-.02,0-.05.02-.07.02h0s0,0-.01,0c-.37.12-.7.3-1.03.48-.5.27-1.07.58-1.98.82-.11.03-.19.12-.19.23h0c0,.11.06.2.17.23,0,0,.34.17.78,1.27.03.09.07.17.11.25,0,0,0,0,0,0,.2.39.47.7.81.93-.03,0-.06.02-.1.02-.02,0-.04,0-.06,0-.94.24-1.74.5-2.44.79,0,0-.01,0-.02,0-.91.38-1.68.81-2.34,1.31-.35.26-.68.55-.98.88-.04.05-.09.09-.13.14,0,.01-.02.02-.03.03h0c-.57.65-1.01,1.38-1.3,2.17,0,.03-.02.05-.03.08,0,0,0,0,0,0-.05.15-.1.28-.15.41-.35-.85-.91-3.39-.23-5.21Zm7.18-11.51c.67,1.4,1.62,2.66,2.83,3.75.04.03.07.07.11.1.02.02.04.04.06.06.02.02.04.04.06.05,1.37,1.26,2.99,2.19,4.59,2.91.5.19,1,.3,1.05.3-.82-.08-2.73-.34-3.65-.51-.68-.13-1.25-.19-1.74-.19-.14,0-.27,0-.39.02-.07-.81-.2-1.48-.41-2.04-.68-1.82-1.53-3.02-2.58-3.66.07-.19.1-.39.1-.59,0-.06,0-.13-.01-.19Zm9.25,10.92c-6.49,3.14-12.93,8.94-12.69,12.77-.58-.58-1.46-1.66-1.53-2.94-.1-1.77.14-2.63.2-2.82.06-.1.05-.22-.03-.3-.09-.1-.23-.11-.33-.01,0,0,0,0,0,0-.11.08-.69.44-1.48.59-.29.06-.5.06-.66.05.01-.01.02-.03.04-.04.19-.23.38-.55.57-.96.1-.22.21-.48.31-.79.3-.83.76-1.59,1.39-2.25.02-.02.04-.04.06-.06,0,0,0,0,.01-.01.27-.27.55-.52.85-.75,0,0,0,0,0,0,.63-.47,1.36-.88,2.23-1.25h.01c.68-.29,1.46-.54,2.38-.77h0s.03,0,.04,0c0,0,.01,0,.02,0,0,0,0,0,.01,0,.46-.11.71-.14.85-.13,0,0,.01,0,.02,0,0,0,.01,0,.01,0h0c.13,0,.24-.11.24-.24,0-.12-.08-.22-.19-.24-.01,0-.02,0-.03,0,0,0,0,0-.01,0-.08-.01-.33-.07-.61-.25-.01,0-.02-.02-.04-.02-.27-.18-.49-.43-.65-.75-.03-.06-.06-.13-.09-.21-.24-.61-.47-.98-.65-1.21.72-.23,1.21-.5,1.65-.73.35-.19.65-.35,1-.46.01,0,.02,0,.03-.01,0,0,0,0,.01,0,.14-.05.3-.08.43-.1,0,0,.02,0,.03,0,.02,0,.03,0,.04,0,0,0,0,0,0,0h0c.58-.08,1.29-.03,2.23.15,1.07.2,2.08.34,3.01.42.38.04.76.06,1.13.07.11,0,.27.01.44.02,1.04.06,1.12.06,1.16-.19.02-.1-.02-.24-.26-.3-.92-.23-1.8-.52-2.61-.86-.18-.07-.36-.15-.54-.23-.32-.14-.67-.31-1.05-.51,0,0-.02,0-.03-.01-1.03-.55-1.97-1.19-2.8-1.92-.02-.01-.03-.03-.05-.04-.02-.02-.07-.07-.08-.08-.02-.02-.04-.04-.07-.06-1.4-1.33-2.55-2.92-3.21-4.71-.01-.04-.03-.07-.04-.11-.04-.1-.07-.2-.1-.3l-.05-.16s-.02-.08-.03-.1l-.04-.14s-.02-.06-.02-.07c-.01-.04-.02-.09-.03-.13l-.02-.09c-.02-.09-.04-.17-.06-.26l-.02-.08c-.04-.2-.08-.4-.11-.61,0-.02,0-.04,0-.06-.02-.18-.04-.35-.06-.53h0c0-.15,0-.33.01-.53.41,1.81,1.37,4.17,3.61,6.23,1.71,1.57,3.95,2.77,6.66,3.55.77.22,1.8.36,3.06.41-.05.15-.1.31-.13.48-.04.23-.09.6-.07,1.15,0,.09.05.18.14.22.08.04.18.03.26-.03.55-.44,1.33-.79,2.33-1.06,2.07-.55,4.95-.69,8.56-.41.84.06,1.65.2,2.48.41.67.17,1.35.4,2.06.68-5.61-.42-11.4.49-16.79,2.67-.81.33-1.6.68-2.36,1.04Zm17.02-.02h-15.77c.43-.19.85-.39,1.29-.57,5.53-2.24,11.5-3.13,17.24-2.58.03,0,.05,0,.08,0,.02.02.03.05.05.07-.09,0-.19-.01-.28-.01-1.47,0-2.67,1.2-2.67,2.67,0,.14.04.28.06.42Zm4.71.18c-.26.93-1.13,1.59-2.1,1.59s-1.84-.65-2.1-1.59c-.06-.19-.09-.39-.09-.6,0-1.21.98-2.19,2.19-2.19s2.19.98,2.19,2.19c0,.2-.03.4-.09.6Zm.34-1.7c-.07-.16-.16-.32-.27-.46.17.02.35.02.53,0-.1.14-.19.3-.26.46Zm4.55,1.7c-.26.93-1.13,1.59-2.1,1.59s-1.84-.65-2.1-1.59c-.06-.19-.08-.39-.08-.6,0-.58.22-1.13.63-1.54,0,0,0,0,0,0,.24-.24.53-.42.86-.53.41-.14.89-.16,1.32-.02,0,0,.01,0,.02,0,.33.1.62.27.88.51.43.42.67.98.67,1.58,0,.2-.03.4-.09.6Zm.33-1.72c-.07-.15-.16-.3-.26-.44.17.02.34.02.51,0-.1.14-.18.28-.25.44Zm4.53,1.72c-.26.93-1.12,1.59-2.1,1.59s-1.84-.65-2.1-1.59c-.06-.19-.08-.4-.08-.6,0-.76.38-1.45,1.05-1.87.04-.02.08-.04.12-.07,0,0,0,0,0,0,.31-.16.66-.25,1.01-.25,1.21,0,2.19.98,2.19,2.19,0,.2-.03.4-.09.6Zm.51-.18c.02-.14.06-.28.06-.43,0-1.47-1.2-2.67-2.67-2.67-.08,0-.16,0-.25.01.02-.02.03-.05.05-.07,5.85-.55,11.92.39,17.54,2.72.33.14.65.29.97.44h-15.7Zm32.83,6.36c.23.5.43.81.61,1.01-.15.01-.37,0-.66-.05-.86-.16-1.48-.59-1.48-.6-.09-.06-.21-.06-.29,0-.08.07-.12.18-.08.28,0,0,.33.88.22,2.85-.07,1.29-.95,2.36-1.53,2.94.24-3.83-6.2-9.64-12.69-12.77-.65-.31-1.33-.62-2.02-.91-4.63-1.92-9.56-2.91-14.43-2.91-.9,0-1.8.03-2.69.1.7-.28,1.38-.51,2.05-.68.84-.21,1.65-.35,2.48-.41,3.61-.28,6.49-.14,8.56.41.99.26,1.78.62,2.33,1.06.07.06.17.07.25.03.08-.04.14-.12.14-.21,0-.01.02-.3,0-.66h0s0-.02,0-.03c-.01-.15-.03-.31-.06-.47-.03-.18-.07-.34-.12-.48,1.27-.05,2.29-.19,3.06-.41,2.77-.8,5.05-2.04,6.78-3.66,2.15-2.02,3.09-4.29,3.49-6.06,0,.22,0,.38,0,.45h0v.02c0,.13-.02.25-.03.37v.1s-.03.09-.03.09h0s0,.06-.01.09c0,0,0,.01,0,.02,0,.04-.01.07-.02.11-.02.1-.04.2-.06.31,0,.05-.02.11-.04.19,0,.03,0,.05-.02.08,0,.04-.02.09-.03.13,0,0,0,.02,0,.03,0,.01,0,.02,0,.03,0,0,0,0,0,0-.02.09-.04.17-.07.26l-.02.07s0,0,0,0c0,0,0,.01,0,.02-.02.08-.05.17-.08.26-.01.04-.02.08-.04.12,0,.02-.02.04-.02.06,0,.02,0,.03-.01.05-.01.04-.03.07-.04.11,0,0,0,.02,0,.02,0,.01,0,.02-.01.03-.01.04-.03.08-.04.12-.01.04-.03.07-.04.1l-.07.18c-.14.33-.28.63-.43.92-.02.02-.03.05-.04.08-.56,1.05-1.29,2.04-2.18,2.96-.05.06-.11.11-.17.17-.03.04-.07.07-.11.11-.03.02-.06.05-.08.08h0s-.04.04-.05.05l-.05.04s-.01.01-.02.02c0,0-.02.01-.02.02-.03.03-.06.06-.09.09-.84.74-1.79,1.39-2.83,1.94,0,0-.02,0-.03.01-.38.2-.72.37-1.05.51-.17.08-.35.15-.53.23-.84.34-1.72.63-2.61.86-.26.06-.27.22-.26.3.04.25.12.24,1.15.19.17,0,.34-.02.45-.02.37-.01.75-.03,1.13-.07.93-.07,1.92-.21,3.02-.41.59-.11,1.09-.17,1.53-.18.02,0,.05,0,.07,0,.26,0,.48.01.68.04.16.03.31.06.47.1.01,0,.03.01.04.02.35.11.65.27,1,.46.44.24.93.5,1.65.73-.18.23-.41.6-.65,1.21-.03.07-.06.14-.09.2-.15.3-.37.55-.63.73-.02,0-.04.02-.05.03-.27.17-.52.24-.65.26-.13.02-.21.14-.2.27s.13.22.26.21c.08,0,.33,0,.93.15.91.23,1.69.48,2.38.77.62.26,1.17.54,1.66.85.02.02.05.04.08.05.18.12.35.23.51.36.37.28.67.55.93.82.44.46.8.97,1.08,1.53,0,0,0,0,0,.01,0,.02.02.04.03.06.1.21.19.43.27.65.11.31.21.57.31.79Zm-2.75-11.92c-.03.07-.07.15-.11.24-.61-1.15-2.07-1.7-3.53-1.7-.2,0-.39,0-.59.03-.84.09-1.68.37-2.31.86h0c-.03-.23-.1-.63-.07-1.13,1.05-.98,1.9-2.08,2.53-3.29,1.12-.18,2.31.09,3.04.73.34.3.75.8.75,1.55-.31.32-.51.76-.51,1.24,0,.6.3,1.16.79,1.48Zm-2.86,2.62c-.91-.24-1.47-.55-1.97-.82-.34-.18-.66-.36-1.04-.48,0,0-.01,0-.02-.01,0,0-.06-.02-.07-.02,0,0,0,0-.01,0-.16-.05-.33-.09-.52-.12-.16-.02-.34-.04-.53-.04.16-1.33,1.61-1.95,2.85-2.08,1.65-.17,3.46.43,3.81,1.89-.22.74-.33,1.69.09,2.52,0,0,0,0,0,.01,0,.02-.01.04-.02.06,0,.01-.25,1.34-3.74,1.54.12-.14.21-.29.3-.46.04-.07.07-.15.11-.25.43-1.09.76-1.27.76-1.27.1-.03.18-.13.18-.24s-.07-.21-.18-.23Zm-4.66-1.49c-.42.02-.89.08-1.42.19-.95.18-2.76.38-3.58.45.84-.2,1.28-.38,1.61-.52.07-.03.32-.15.33-.15.37-.19.65-.29.91-.46,0,0,.01,0,.02,0,.02,0,.03-.02.05-.03.91-.54,1.75-1.17,2.51-1.86.01.33.06.59.08.74,0,.06.02.1.02.12,0,.07.04.13.08.17-.33.37-.56.82-.61,1.36Zm7.58,2.82c.52.6,1.37,1,2.52,1.17.21.03.37.11.46.25.15.21.13.49.12.58-.14.25-1.03,1.7-3.35,1.3-.52-.33-1.09-.62-1.74-.89-.7-.29-1.48-.54-2.44-.79,3.14-.11,4.13-1.07,4.43-1.62Zm3.99,4.43c-.13.72-.66,1.27-1.58,1.65-.29-.54-.65-1.03-1.07-1.48-.23-.25-.5-.5-.82-.75,1.8,0,2.67-1.1,2.93-1.52.1.02.21.04.31.06.08.06.5.46.23,2.04Zm1.32-8.69v.56c0,.07.03.14.09.19.89.74,1.85,1.75,1.85,2.09,0,.24-.18.57-.32.79l-.57-.41c-.11-.08-.26-.05-.34.06-.08.11-.05.26.06.34l.66.47c-.04.24-.2.77-.86.77h-.59l-.15-.32c-.06-.12-.21-.17-.32-.12-.12.06-.17.2-.12.32l.22.46c.04.08.13.14.22.14h.75s.04,0,.06,0c.04.22.11.81-.23,1.13-.27.25-.42.31-.46.32-.18-.12-.88-.54-1.66-.67,0-.2-.04-.47-.21-.71-.17-.25-.44-.4-.79-.45-1.28-.19-2.12-.67-2.49-1.41-.62-1.23.2-2.89.37-3.21,0,0,0,0,0,0,.01-.02.02-.05.02-.07,0-.04,0-.09-.02-.13h0s0,0,0,0c0-.02-.02-.05-.04-.06-.02-.02-.04-.04-.07-.06,0,0,0,0,0,0-.44-.21-.73-.66-.73-1.16,0-.37.16-.71.41-.94.01,0,.02-.02.03-.03.23-.2.53-.32.86-.32.43,0,.83.21,1.06.56,0,0,.01.02.02.03.02.03.05.05.08.06.03.01.06.02.1.02h0s.02,0,.04,0c1.5-.18,2.37.75,2.41.79,0,0,.01.01.02.02.32.34.66.83.66.99Zm-.56-3.25c.26.59.09,1.28-.04,1.67-.16-.13-.4-.29-.7-.43.08-.28.2-1-.17-2.04,0-.02-.01-.04-.02-.06.46.2.77.48.94.85Zm-1.37-.63c.32.87.23,1.47.17,1.7-.28-.08-.59-.13-.94-.13-.03,0-.07,0-.1,0,.03-.19.24-1.69-.81-2.76.56.04,1.35.27,1.68,1.19Zm-2.46-1.21c1.4.99,1.12,2.35,1.11,2.42,0,.04,0,.05-.02.09-.31-.25-.68-.37-1.09-.37-.29,0-.57.07-.81.2-.09-.6-.39-1.15-.89-1.57-.52-.45-1.21-.74-1.95-.85.44-.24,1.21-.57,2.11-.49,0,0,0,0,0,0,.49.04,1.02.21,1.54.58Zm2.1-12.43c-.44,1.39-.81,2.68-1.17,3.93-.82,2.86-1.53,5.34-2.61,7.43-1.5-.05-2.66.83-2.68.84-.03.02-.06.05-.07.09-.13,0-.26,0-.39.02.13-.28.25-.57.35-.86.02-.05.03-.09.05-.13,0-.02.01-.04.02-.06,0,0,0,0,0-.01.02-.04.03-.08.04-.12.01-.04.03-.08.04-.12.04-.12.08-.25.11-.36,0-.02,0-.04.02-.05.01-.04.03-.09.04-.15,0,0,0,0,0,0h0s0-.02,0-.03c.02-.06.04-.12.05-.19,0,0,0-.01,0-.02.02-.06.04-.12.04-.16h0c.03-.1.05-.2.06-.29.02-.09.04-.19.05-.28,0-.05.02-.1.02-.15,0,0,0,0,0,0,0-.04.01-.07.02-.1,0,0,0-.02,0-.03,0-.02,0-.04,0-.05.02-.15.04-.3.05-.46v-.1c.02-.25.03-.49.03-.74,0-.73-.08-1.55-.24-2.61h0s0-.03,0-.04h0s0-.05-.01-.07c-.04-.27-.08-.53-.13-.8-.36-2.25-.74-4.58.15-6.63.48-1.12,1.29-2.07,2.46-2.89,0,.27.08.6.32.97.62.95.55,2.4.43,3.41,0,0,0,0,0,0-.01.13.08.25.22.27.13.02.25-.08.27-.21,0,0,0,0,0,0,0-.05.18-1.32,1.74-3.51,1.5-2.12,3.36-2.98,4.6-3.08.38-.03.75.02,1.06.09-2.46.92-4.62,6.17-4.96,7.26Z"/></svg>