<svg width="15" height="15" viewBox="0 0 15 15" fill="none" xmlns="http://www.w3.org/2000/svg">
<path fill-rule="evenodd" clip-rule="evenodd" d="M7.49337 0.933319C3.81337 0.933319 0.833374 3.91999 0.833374 7.59999C0.833374 11.28 3.81337 14.2667 7.49337 14.2667C11.18 14.2667 14.1667 11.28 14.1667 7.59999C14.1667 3.91999 11.18 0.933319 7.49337 0.933319ZM12.1134 4.93332H10.1467C9.93337 4.09999 9.62671 3.29999 9.22671 2.55999C10.4534 2.97999 11.4734 3.83332 12.1134 4.93332ZM7.50004 2.29332C8.05337 3.09332 8.48671 3.97999 8.77337 4.93332H6.22671C6.51337 3.97999 6.94671 3.09332 7.50004 2.29332ZM2.34004 8.93332C2.23337 8.50665 2.16671 8.05999 2.16671 7.59999C2.16671 7.13999 2.23337 6.69332 2.34004 6.26665H4.59337C4.54004 6.70665 4.50004 7.14665 4.50004 7.59999C4.50004 8.05332 4.54004 8.49332 4.59337 8.93332H2.34004ZM2.88671 10.2667H4.85337C5.06671 11.1 5.37337 11.9 5.77337 12.64C4.54671 12.22 3.52671 11.3733 2.88671 10.2667ZM4.85337 4.93332H2.88671C3.52671 3.82665 4.54671 2.97999 5.77337 2.55999C5.37337 3.29999 5.06671 4.09999 4.85337 4.93332ZM7.50004 12.9067C6.94671 12.1067 6.51337 11.22 6.22671 10.2667H8.77337C8.48671 11.22 8.05337 12.1067 7.50004 12.9067ZM9.06004 8.93332H5.94004C5.88004 8.49332 5.83337 8.05332 5.83337 7.59999C5.83337 7.14665 5.88004 6.69999 5.94004 6.26665H9.06004C9.12004 6.69999 9.16671 7.14665 9.16671 7.59999C9.16671 8.05332 9.12004 8.49332 9.06004 8.93332ZM9.22671 12.64C9.62671 11.9 9.93337 11.1 10.1467 10.2667H12.1134C11.4734 11.3667 10.4534 12.22 9.22671 12.64ZM10.4067 8.93332C10.46 8.49332 10.5 8.05332 10.5 7.59999C10.5 7.14665 10.46 6.70665 10.4067 6.26665H12.66C12.7667 6.69332 12.8334 7.13999 12.8334 7.59999C12.8334 8.05999 12.7667 8.50665 12.66 8.93332H10.4067Z" fill="#3C6589"/>
</svg>
