<svg width="21" height="25" viewBox="0 0 21 25" fill="none" xmlns="http://www.w3.org/2000/svg">
<path fill-rule="evenodd" clip-rule="evenodd" d="M15.5 7.09998H5.5V5.09998H15.5V7.09998ZM11.5 11.1H5.5V9.09998H11.5V11.1ZM17.5 20.1H19.5C20.052 20.1 20.5 19.653 20.5 19.1V1.09998C20.5 0.546976 20.052 0.0999756 19.5 0.0999756H1.5C0.948 0.0999756 0.5 0.546976 0.5 1.09998V19.1C0.5 19.653 0.948 20.1 1.5 20.1H3.5V18.1H2.5V2.09998H18.5V18.1H17.5V20.1ZM7.793 23.807C7.988 24.002 8.244 24.1 8.5 24.1C8.756 24.1 9.012 24.002 9.207 23.807L16.207 16.807L14.793 15.393L8.5 21.686L6.207 19.393L4.793 20.807L7.793 23.807Z" fill="#3C6589"/>
</svg>
